<?xml version="1.0" encoding="UTF-8"?>
<svg xmlns="http://www.w3.org/2000/svg" xmlns:xlink="http://www.w3.org/1999/xlink" width="525pt" height="324pt" viewBox="0 0 525 324">
<defs>
<g>
<g id="glyph-0-0">
<path d="M 2.5625 -8.75 L 0.75 -8.75 L 0.75 0 L 2.5625 0 Z M 2.5625 -8.75 "/>
</g>
<g id="glyph-0-1">
<path d="M 0.75 -6.484375 L 0.75 0 L 2.4375 0 L 2.4375 -3.890625 C 2.4375 -4.65625 2.96875 -5.15625 3.796875 -5.15625 C 4.515625 -5.15625 4.875 -4.765625 4.875 -4 L 4.875 0 L 6.546875 0 L 6.546875 -4.34375 C 6.546875 -5.78125 5.765625 -6.59375 4.375 -6.59375 C 3.5 -6.59375 2.921875 -6.28125 2.4375 -5.546875 L 2.4375 -6.484375 Z M 0.75 -6.484375 "/>
</g>
<g id="glyph-0-2">
<path d="M 2.515625 -6.484375 L 0.84375 -6.484375 L 0.84375 0.75 C 0.84375 1.125 0.703125 1.265625 0.34375 1.265625 C 0.234375 1.265625 0.15625 1.25 0.046875 1.21875 L 0.046875 2.5625 C 0.375 2.59375 0.78125 2.609375 1.046875 2.609375 C 2.09375 2.609375 2.515625 2.1875 2.515625 1.125 Z M 2.515625 -8.75 L 0.84375 -8.75 L 0.84375 -7.25 L 2.515625 -7.25 Z M 2.515625 -8.75 "/>
</g>
<g id="glyph-0-3">
<path d="M 6.28125 -2.71875 C 6.296875 -2.859375 6.296875 -2.921875 6.296875 -3 C 6.296875 -3.640625 6.203125 -4.25 6.046875 -4.703125 C 5.609375 -5.875 4.578125 -6.59375 3.265625 -6.59375 C 1.40625 -6.59375 0.265625 -5.25 0.265625 -3.078125 C 0.265625 -1 1.390625 0.28125 3.234375 0.28125 C 4.6875 0.28125 5.859375 -0.546875 6.234375 -1.828125 L 4.578125 -1.828125 C 4.375 -1.3125 3.90625 -1.015625 3.28125 -1.015625 C 2.8125 -1.015625 2.421875 -1.21875 2.1875 -1.578125 C 2.03125 -1.8125 1.96875 -2.09375 1.9375 -2.71875 Z M 1.96875 -3.828125 C 2.078125 -4.828125 2.5 -5.296875 3.234375 -5.296875 C 4.015625 -5.296875 4.46875 -4.78125 4.546875 -3.828125 Z M 1.96875 -3.828125 "/>
</g>
<g id="glyph-0-4">
<path d="M 6.265625 -4.0625 C 6.140625 -5.640625 5.09375 -6.59375 3.46875 -6.59375 C 1.53125 -6.59375 0.40625 -5.3125 0.40625 -3.109375 C 0.40625 -0.96875 1.53125 0.28125 3.4375 0.28125 C 5.015625 0.28125 6.109375 -0.703125 6.265625 -2.25 L 4.65625 -2.25 C 4.453125 -1.40625 4.109375 -1.078125 3.4375 -1.078125 C 2.59375 -1.078125 2.09375 -1.84375 2.09375 -3.109375 C 2.09375 -3.734375 2.203125 -4.296875 2.40625 -4.6875 C 2.609375 -5.046875 2.96875 -5.234375 3.453125 -5.234375 C 4.140625 -5.234375 4.46875 -4.90625 4.65625 -4.0625 Z M 6.265625 -4.0625 "/>
</g>
<g id="glyph-0-5">
<path d="M 3.609375 -6.34375 L 2.671875 -6.34375 L 2.671875 -8.09375 L 1 -8.09375 L 1 -6.34375 L 0.171875 -6.34375 L 0.171875 -5.234375 L 1 -5.234375 L 1 -1.25 C 1 -0.234375 1.53125 0.28125 2.640625 0.28125 C 3.03125 0.28125 3.296875 0.234375 3.609375 0.140625 L 3.609375 -1.03125 C 3.4375 -1.015625 3.359375 -1 3.234375 -1 C 2.78125 -1 2.671875 -1.125 2.671875 -1.703125 L 2.671875 -5.234375 L 3.609375 -5.234375 Z M 3.609375 -6.34375 "/>
</g>
<g id="glyph-0-6">
<path d="M 2.484375 -6.484375 L 0.796875 -6.484375 L 0.796875 0 L 2.484375 0 Z M 2.484375 -8.75 L 0.796875 -8.75 L 0.796875 -7.25 L 2.484375 -7.25 Z M 2.484375 -8.75 "/>
</g>
<g id="glyph-0-7">
<path d="M 3.609375 -6.59375 C 1.625 -6.59375 0.421875 -5.28125 0.421875 -3.15625 C 0.421875 -1.015625 1.625 0.28125 3.625 0.28125 C 5.609375 0.28125 6.828125 -1.015625 6.828125 -3.109375 C 6.828125 -5.296875 5.640625 -6.59375 3.609375 -6.59375 Z M 3.625 -5.234375 C 4.546875 -5.234375 5.140625 -4.40625 5.140625 -3.125 C 5.140625 -1.921875 4.53125 -1.078125 3.625 -1.078125 C 2.71875 -1.078125 2.09375 -1.90625 2.09375 -3.15625 C 2.09375 -4.40625 2.71875 -5.234375 3.625 -5.234375 Z M 3.625 -5.234375 "/>
</g>
<g id="glyph-0-8">
<path d="M 7.28125 -6.078125 C 7.265625 -7.890625 6.0625 -8.890625 3.859375 -8.890625 C 1.75 -8.890625 0.546875 -7.90625 0.546875 -6.203125 C 0.546875 -4.84375 1.21875 -4.1875 3 -3.859375 L 4.21875 -3.609375 C 5.421875 -3.390625 5.875 -3.046875 5.875 -2.34375 C 5.875 -1.609375 5.203125 -1.15625 4.109375 -1.15625 C 2.875 -1.15625 2.203125 -1.6875 2.140625 -2.609375 L 0.390625 -2.609375 C 0.484375 -0.75 1.78125 0.28125 4.015625 0.28125 C 6.265625 0.28125 7.59375 -0.765625 7.59375 -2.5625 C 7.59375 -3.9375 6.90625 -4.65625 5.28125 -4.96875 L 3.90625 -5.234375 C 2.625 -5.484375 2.25 -5.734375 2.25 -6.375 C 2.25 -7.03125 2.828125 -7.453125 3.765625 -7.453125 C 4.90625 -7.453125 5.546875 -6.96875 5.609375 -6.078125 Z M 7.28125 -6.078125 "/>
</g>
<g id="glyph-0-9">
<path d="M 6.484375 0 L 6.484375 -6.484375 L 4.8125 -6.484375 L 4.8125 -2.421875 C 4.8125 -1.65625 4.28125 -1.15625 3.453125 -1.15625 C 2.734375 -1.15625 2.375 -1.53125 2.375 -2.3125 L 2.375 -6.484375 L 0.703125 -6.484375 L 0.703125 -1.96875 C 0.703125 -0.53125 1.46875 0.28125 2.875 0.28125 C 3.75 0.28125 4.328125 -0.03125 4.8125 -0.765625 L 4.8125 0 Z M 6.484375 0 "/>
</g>
<g id="glyph-0-10">
<path d="M 0.703125 -8.75 L 0.703125 0 L 2.390625 0 L 2.390625 -0.65625 C 2.796875 -0.03125 3.359375 0.28125 4.171875 0.28125 C 5.71875 0.28125 6.90625 -1.203125 6.90625 -3.15625 C 6.90625 -4.03125 6.640625 -4.921875 6.203125 -5.546875 C 5.765625 -6.1875 4.96875 -6.59375 4.171875 -6.59375 C 3.359375 -6.59375 2.796875 -6.28125 2.390625 -5.640625 L 2.390625 -8.75 Z M 3.796875 -5.1875 C 4.625 -5.1875 5.21875 -4.34375 5.21875 -3.140625 C 5.21875 -1.953125 4.640625 -1.125 3.796875 -1.125 C 2.953125 -1.125 2.390625 -1.9375 2.390625 -3.1875 C 2.390625 -4.375 2.96875 -5.1875 3.796875 -5.1875 Z M 3.796875 -5.1875 "/>
</g>
<g id="glyph-0-11">
<path d="M 8.1875 -5.78125 C 8.125 -6.546875 7.96875 -7.015625 7.59375 -7.515625 C 6.921875 -8.40625 5.84375 -8.890625 4.53125 -8.890625 C 2.0625 -8.890625 0.53125 -7.125 0.53125 -4.296875 C 0.53125 -1.46875 2.046875 0.28125 4.484375 0.28125 C 6.671875 0.28125 8.109375 -0.984375 8.21875 -2.984375 L 6.46875 -2.984375 C 6.34375 -1.875 5.65625 -1.234375 4.53125 -1.234375 C 3.140625 -1.234375 2.328125 -2.359375 2.328125 -4.265625 C 2.328125 -6.203125 3.1875 -7.359375 4.59375 -7.359375 C 5.640625 -7.359375 6.234375 -6.859375 6.46875 -5.78125 Z M 8.1875 -5.78125 "/>
</g>
<g id="glyph-0-12">
<path d="M 4.859375 0 L 6.546875 0 L 6.546875 -8.75 L 4.859375 -8.75 L 4.859375 -5.640625 C 4.4375 -6.28125 3.890625 -6.59375 3.078125 -6.59375 C 1.53125 -6.59375 0.34375 -5.09375 0.34375 -3.140625 C 0.34375 -2.265625 0.609375 -1.375 1.046875 -0.75 C 1.484375 -0.125 2.28125 0.28125 3.078125 0.28125 C 3.890625 0.28125 4.4375 -0.015625 4.859375 -0.65625 Z M 3.4375 -5.1875 C 4.296875 -5.1875 4.859375 -4.375 4.859375 -3.125 C 4.859375 -1.9375 4.28125 -1.125 3.4375 -1.125 C 2.609375 -1.125 2.03125 -1.953125 2.03125 -3.140625 C 2.03125 -4.359375 2.609375 -5.1875 3.4375 -5.1875 Z M 3.4375 -5.1875 "/>
</g>
<g id="glyph-0-13">
<path d="M 0.921875 0 L 4.34375 0 C 5.671875 0 6.515625 -0.3125 7.109375 -1.015625 C 7.796875 -1.84375 8.171875 -3.015625 8.171875 -4.375 C 8.171875 -5.734375 7.796875 -6.90625 7.109375 -7.734375 C 6.515625 -8.453125 5.6875 -8.75 4.34375 -8.75 L 0.921875 -8.75 Z M 2.71875 -1.5 L 2.71875 -7.25 L 4.34375 -7.25 C 5.703125 -7.25 6.375 -6.296875 6.375 -4.375 C 6.375 -2.453125 5.703125 -1.5 4.34375 -1.5 Z M 2.71875 -1.5 "/>
</g>
<g id="glyph-0-14">
<path d="M 4.796875 -6.484375 L 4.796875 -5.484375 C 4.328125 -6.234375 3.8125 -6.59375 3.125 -6.59375 C 2.5625 -6.59375 1.921875 -6.296875 1.46875 -5.828125 C 0.828125 -5.15625 0.484375 -4.21875 0.484375 -3.078125 C 0.484375 -1.09375 1.546875 0.28125 3.09375 0.28125 C 3.796875 0.28125 4.21875 0.046875 4.796875 -0.65625 L 4.796875 0.21875 C 4.796875 1 4.25 1.53125 3.453125 1.53125 C 2.859375 1.53125 2.484375 1.265625 2.359375 0.78125 L 0.625 0.78125 C 0.640625 1.28125 0.8125 1.625 1.265625 1.984375 C 1.78125 2.40625 2.484375 2.609375 3.390625 2.609375 C 5.265625 2.609375 6.390625 1.71875 6.390625 0.21875 L 6.390625 -6.484375 Z M 3.4375 -5.1875 C 4.234375 -5.1875 4.828125 -4.3125 4.828125 -3.109375 C 4.828125 -1.9375 4.265625 -1.125 3.421875 -1.125 C 2.6875 -1.125 2.171875 -1.9375 2.171875 -3.109375 C 2.171875 -4.328125 2.6875 -5.1875 3.4375 -5.1875 Z M 3.4375 -5.1875 "/>
</g>
<g id="glyph-0-15">
<path d="M 6.0625 -4.390625 C 6.03125 -5.765625 4.984375 -6.59375 3.234375 -6.59375 C 1.59375 -6.59375 0.578125 -5.765625 0.578125 -4.421875 C 0.578125 -4 0.703125 -3.625 0.9375 -3.375 C 1.15625 -3.140625 1.375 -3.03125 1.984375 -2.828125 L 4 -2.203125 C 4.421875 -2.078125 4.5625 -1.9375 4.5625 -1.6875 C 4.5625 -1.28125 4.09375 -1.046875 3.3125 -1.046875 C 2.875 -1.046875 2.53125 -1.109375 2.3125 -1.265625 C 2.140625 -1.40625 2.0625 -1.53125 1.984375 -1.890625 L 0.34375 -1.890625 C 0.390625 -0.453125 1.4375 0.28125 3.40625 0.28125 C 4.3125 0.28125 4.984375 0.078125 5.46875 -0.296875 C 5.953125 -0.6875 6.234375 -1.28125 6.234375 -1.921875 C 6.234375 -2.765625 5.8125 -3.296875 4.96875 -3.546875 L 2.84375 -4.15625 C 2.375 -4.3125 2.25 -4.40625 2.25 -4.671875 C 2.25 -5.03125 2.640625 -5.265625 3.234375 -5.265625 C 4.03125 -5.265625 4.421875 -4.984375 4.4375 -4.390625 Z M 6.0625 -4.390625 "/>
</g>
<g id="glyph-1-0">
<path d="M 3.125 -3.4375 L 0.5 -3.4375 L 0.5 -2.640625 L 3.125 -2.640625 Z M 3.125 -3.4375 "/>
</g>
<g id="glyph-1-1">
<path d="M 5.5625 -0.953125 L 1.46875 -0.953125 C 1.5625 -1.609375 1.90625 -2.03125 2.875 -2.625 L 3.96875 -3.234375 C 5.0625 -3.84375 5.625 -4.65625 5.625 -5.625 C 5.625 -6.296875 5.359375 -6.90625 4.890625 -7.34375 C 4.4375 -7.75 3.859375 -7.953125 3.125 -7.953125 C 2.140625 -7.953125 1.390625 -7.59375 0.96875 -6.921875 C 0.6875 -6.5 0.578125 -6 0.546875 -5.203125 L 1.515625 -5.203125 C 1.546875 -5.734375 1.609375 -6.0625 1.75 -6.328125 C 2 -6.8125 2.515625 -7.109375 3.09375 -7.109375 C 3.96875 -7.109375 4.625 -6.46875 4.625 -5.609375 C 4.625 -4.96875 4.265625 -4.421875 3.578125 -4.03125 L 2.5625 -3.4375 C 0.9375 -2.5 0.46875 -1.75 0.375 -0.015625 L 5.5625 -0.015625 Z M 5.5625 -0.953125 "/>
</g>
<g id="glyph-1-2">
<path d="M 3.03125 -7.953125 C 2.296875 -7.953125 1.640625 -7.625 1.234375 -7.078125 C 0.71875 -6.375 0.46875 -5.328125 0.46875 -3.84375 C 0.46875 -1.171875 1.359375 0.25 3.03125 0.25 C 4.671875 0.25 5.578125 -1.171875 5.578125 -3.78125 C 5.578125 -5.328125 5.328125 -6.359375 4.8125 -7.078125 C 4.40625 -7.640625 3.765625 -7.953125 3.03125 -7.953125 Z M 3.03125 -7.09375 C 4.0625 -7.09375 4.59375 -6.03125 4.59375 -3.875 C 4.59375 -1.609375 4.078125 -0.546875 3 -0.546875 C 1.984375 -0.546875 1.46875 -1.65625 1.46875 -3.84375 C 1.46875 -6.03125 1.984375 -7.09375 3.03125 -7.09375 Z M 3.03125 -7.09375 "/>
</g>
<g id="glyph-1-3">
<path d="M 3.59375 -1.921875 L 3.59375 0 L 4.5625 0 L 4.5625 -1.921875 L 5.71875 -1.921875 L 5.71875 -2.796875 L 4.5625 -2.796875 L 4.5625 -7.953125 L 3.84375 -7.953125 L 0.3125 -2.953125 L 0.3125 -1.921875 Z M 3.59375 -2.796875 L 1.15625 -2.796875 L 3.59375 -6.296875 Z M 3.59375 -2.796875 "/>
</g>
<g id="glyph-1-4">
<path d="M 2.84375 -5.671875 L 2.84375 0 L 3.8125 0 L 3.8125 -7.953125 L 3.171875 -7.953125 C 2.84375 -6.734375 2.625 -6.5625 1.125 -6.375 L 1.125 -5.671875 Z M 2.84375 -5.671875 "/>
</g>
<g id="glyph-2-0">
<path d="M 2.9375 -3.375 L 5.375 -3.375 C 7.109375 -3.375 8.234375 -4.609375 8.234375 -6.53125 C 8.234375 -8.4375 7.15625 -9.484375 5.171875 -9.484375 L 0.984375 -9.484375 L 0.984375 0 L 2.9375 0 Z M 2.9375 -5 L 2.9375 -7.859375 L 4.765625 -7.859375 C 5.796875 -7.859375 6.28125 -7.390625 6.28125 -6.4375 C 6.28125 -5.453125 5.796875 -5 4.765625 -5 Z M 2.9375 -5 "/>
</g>
<g id="glyph-2-1">
<path d="M 8.859375 -6.265625 C 8.796875 -7.078125 8.625 -7.609375 8.234375 -8.140625 C 7.5 -9.09375 6.328125 -9.640625 4.90625 -9.640625 C 2.234375 -9.640625 0.578125 -7.71875 0.578125 -4.65625 C 0.578125 -1.59375 2.21875 0.296875 4.859375 0.296875 C 7.234375 0.296875 8.78125 -1.0625 8.90625 -3.234375 L 7 -3.234375 C 6.875 -2.03125 6.125 -1.34375 4.90625 -1.34375 C 3.40625 -1.34375 2.515625 -2.5625 2.515625 -4.625 C 2.515625 -6.71875 3.4375 -7.96875 4.984375 -7.96875 C 6.109375 -7.96875 6.75 -7.421875 7 -6.265625 Z M 8.859375 -6.265625 "/>
</g>
<g id="glyph-2-2">
<path d="M 3.09375 -6.359375 L 3.09375 0 L 4.90625 0 L 4.90625 -9.21875 L 3.703125 -9.21875 C 3.421875 -8.125 2.46875 -7.5625 0.890625 -7.5625 L 0.890625 -6.359375 Z M 3.09375 -6.359375 "/>
</g>
<g id="glyph-2-3">
</g>
<g id="glyph-2-4">
<path d="M 2.640625 -9.484375 C 1.140625 -7.21875 0.515625 -5.453125 0.515625 -3.4375 C 0.515625 -1.4375 1.140625 0.34375 2.640625 2.59375 L 3.9375 2.59375 C 2.546875 -0.078125 2.125 -1.515625 2.125 -3.4375 C 2.125 -5.359375 2.5625 -6.828125 3.9375 -9.484375 Z M 2.640625 -9.484375 "/>
</g>
<g id="glyph-2-5">
<path d="M 6.359375 -9.21875 L 1.4375 -9.21875 L 0.609375 -4.078125 L 2.25 -4.078125 C 2.4375 -4.53125 2.859375 -4.78125 3.421875 -4.78125 C 4.34375 -4.78125 4.90625 -4.125 4.90625 -3 C 4.90625 -1.921875 4.34375 -1.265625 3.421875 -1.265625 C 2.625 -1.265625 2.1875 -1.65625 2.140625 -2.40625 L 0.34375 -2.40625 C 0.375 -0.796875 1.59375 0.296875 3.390625 0.296875 C 5.375 0.296875 6.71875 -1.046875 6.71875 -3.046875 C 6.71875 -4.9375 5.546875 -6.234375 3.84375 -6.234375 C 3.234375 -6.234375 2.78125 -6.078125 2.25 -5.671875 L 2.546875 -7.59375 L 6.359375 -7.59375 Z M 6.359375 -9.21875 "/>
</g>
<g id="glyph-2-6">
<path d="M 2.828125 -4.125 C 3.515625 -4.125 3.5625 -4.125 3.890625 -4.03125 C 4.5 -3.859375 4.890625 -3.328125 4.890625 -2.65625 C 4.890625 -1.828125 4.3125 -1.265625 3.515625 -1.265625 C 2.671875 -1.265625 2.203125 -1.75 2.140625 -2.703125 L 0.375 -2.703125 C 0.390625 -0.859375 1.59375 0.296875 3.484375 0.296875 C 5.453125 0.296875 6.703125 -0.859375 6.703125 -2.65625 C 6.703125 -3.734375 6.234375 -4.4375 5.203125 -4.9375 C 6.046875 -5.46875 6.40625 -6.0625 6.40625 -6.90625 C 6.40625 -8.4375 5.265625 -9.40625 3.484375 -9.40625 C 2.140625 -9.40625 1.125 -8.828125 0.71875 -7.828125 C 0.546875 -7.390625 0.5 -7.078125 0.5 -6.3125 L 2.1875 -6.3125 C 2.203125 -6.8125 2.234375 -7.0625 2.328125 -7.296875 C 2.5 -7.703125 2.90625 -7.9375 3.4375 -7.9375 C 4.171875 -7.9375 4.59375 -7.5 4.59375 -6.734375 C 4.59375 -5.796875 4.0625 -5.34375 2.984375 -5.34375 L 2.828125 -5.34375 Z M 2.828125 -4.125 "/>
</g>
<g id="glyph-2-7">
<path d="M 2.78125 -1.890625 L 0.828125 -1.890625 L 0.828125 0 L 2.78125 0 Z M 2.78125 -1.890625 "/>
</g>
<g id="glyph-2-8">
<path d="M 6.859375 -9.21875 L 0.375 -9.21875 L 0.375 -7.59375 L 4.96875 -7.59375 C 4.40625 -7 3.296875 -5.3125 2.9375 -4.515625 C 2.296875 -3.171875 1.96875 -1.96875 1.734375 0 L 3.5625 0 C 3.734375 -2.90625 4.6875 -5.140625 6.859375 -7.78125 Z M 6.859375 -9.21875 "/>
</g>
<g id="glyph-2-9">
<path d="M 2.671875 -9.109375 C 1.359375 -9.109375 0.28125 -8.046875 0.28125 -6.75 C 0.28125 -5.453125 1.359375 -4.375 2.671875 -4.375 C 3.984375 -4.375 5.0625 -5.4375 5.0625 -6.71875 C 5.0625 -8.0625 4.015625 -9.109375 2.671875 -9.109375 Z M 2.671875 -7.828125 C 3.296875 -7.828125 3.78125 -7.34375 3.78125 -6.734375 C 3.78125 -6.140625 3.28125 -5.65625 2.671875 -5.65625 C 2.0625 -5.65625 1.578125 -6.140625 1.578125 -6.75 C 1.578125 -7.34375 2.0625 -7.828125 2.671875 -7.828125 Z M 7.875 -9.21875 L 2.734375 0.265625 L 3.734375 0.265625 L 8.859375 -9.21875 Z M 8.828125 -4.578125 C 7.5 -4.578125 6.4375 -3.515625 6.4375 -2.203125 C 6.4375 -0.890625 7.5 0.171875 8.828125 0.171875 C 10.140625 0.171875 11.21875 -0.890625 11.21875 -2.171875 C 11.21875 -3.515625 10.171875 -4.578125 8.828125 -4.578125 Z M 8.828125 -3.28125 C 9.453125 -3.28125 9.9375 -2.8125 9.9375 -2.1875 C 9.9375 -1.59375 9.421875 -1.109375 8.828125 -1.109375 C 8.21875 -1.109375 7.71875 -1.59375 7.71875 -2.203125 C 7.71875 -2.796875 8.21875 -3.28125 8.828125 -3.28125 Z M 8.828125 -3.28125 "/>
</g>
<g id="glyph-2-10">
<path d="M 1.59375 2.59375 C 3.078125 0.34375 3.703125 -1.4375 3.703125 -3.4375 C 3.703125 -5.453125 3.078125 -7.21875 1.59375 -9.484375 L 0.28125 -9.484375 C 1.671875 -6.796875 2.109375 -5.359375 2.109375 -3.4375 C 2.109375 -1.515625 1.65625 -0.046875 0.28125 2.59375 Z M 1.59375 2.59375 "/>
</g>
<g id="glyph-3-0">
<path d="M -3.375 -2.9375 L -3.375 -5.375 C -3.375 -7.109375 -4.609375 -8.234375 -6.53125 -8.234375 C -8.4375 -8.234375 -9.484375 -7.15625 -9.484375 -5.171875 L -9.484375 -0.984375 L 0 -0.984375 L 0 -2.9375 Z M -5 -2.9375 L -7.859375 -2.9375 L -7.859375 -4.765625 C -7.859375 -5.796875 -7.390625 -6.28125 -6.4375 -6.28125 C -5.453125 -6.28125 -5 -5.796875 -5 -4.765625 Z M -5 -2.9375 "/>
</g>
<g id="glyph-3-1">
<path d="M -6.265625 -8.859375 C -7.078125 -8.796875 -7.609375 -8.625 -8.140625 -8.234375 C -9.09375 -7.5 -9.640625 -6.328125 -9.640625 -4.90625 C -9.640625 -2.234375 -7.71875 -0.578125 -4.65625 -0.578125 C -1.59375 -0.578125 0.296875 -2.21875 0.296875 -4.859375 C 0.296875 -7.234375 -1.0625 -8.78125 -3.234375 -8.90625 L -3.234375 -7 C -2.03125 -6.875 -1.34375 -6.125 -1.34375 -4.90625 C -1.34375 -3.40625 -2.5625 -2.515625 -4.625 -2.515625 C -6.71875 -2.515625 -7.96875 -3.4375 -7.96875 -4.984375 C -7.96875 -6.109375 -7.421875 -6.75 -6.265625 -7 Z M -6.265625 -8.859375 "/>
</g>
<g id="glyph-3-2">
<path d="M -1.625 -6.65625 L -1.625 -2.75 C -2.125 -2.984375 -2.390625 -3.28125 -3.359375 -4.625 C -4.53125 -6.234375 -5.21875 -6.6875 -6.484375 -6.6875 C -8.265625 -6.6875 -9.40625 -5.453125 -9.40625 -3.53125 C -9.40625 -1.625 -8.28125 -0.5 -6.328125 -0.5 L -6 -0.5 L -6 -2.265625 L -6.3125 -2.265625 C -7.328125 -2.265625 -7.9375 -2.75 -7.9375 -3.578125 C -7.9375 -4.375 -7.375 -4.875 -6.453125 -4.875 C -5.421875 -4.875 -5.046875 -4.5625 -3.59375 -2.515625 C -2.515625 -0.953125 -1.71875 -0.46875 0 -0.390625 L 0 -6.65625 Z M -1.625 -6.65625 "/>
</g>
<g id="glyph-3-3">
</g>
<g id="glyph-3-4">
<path d="M -9.484375 -2.640625 C -7.21875 -1.140625 -5.453125 -0.515625 -3.4375 -0.515625 C -1.4375 -0.515625 0.34375 -1.140625 2.59375 -2.640625 L 2.59375 -3.9375 C -0.078125 -2.546875 -1.515625 -2.125 -3.4375 -2.125 C -5.359375 -2.125 -6.828125 -2.5625 -9.484375 -3.9375 Z M -9.484375 -2.640625 "/>
</g>
<g id="glyph-3-5">
<path d="M -6.359375 -3.09375 L 0 -3.09375 L 0 -4.90625 L -9.21875 -4.90625 L -9.21875 -3.703125 C -8.125 -3.421875 -7.5625 -2.46875 -7.5625 -0.890625 L -6.359375 -0.890625 Z M -6.359375 -3.09375 "/>
</g>
<g id="glyph-3-6">
<path d="M -9.40625 -3.546875 C -9.40625 -2.5625 -9 -1.71875 -8.234375 -1.15625 C -7.515625 -0.625 -6.34375 -0.375 -4.546875 -0.375 C -2.90625 -0.375 -1.765625 -0.578125 -1.0625 -1.03125 C -0.1875 -1.578125 0.296875 -2.46875 0.296875 -3.546875 C 0.296875 -4.546875 -0.109375 -5.375 -0.875 -5.9375 C -1.59375 -6.46875 -2.765625 -6.71875 -4.5 -6.71875 C -6.1875 -6.71875 -7.328125 -6.515625 -8.046875 -6.078125 C -8.9375 -5.53125 -9.40625 -4.625 -9.40625 -3.546875 Z M -7.9375 -3.546875 C -7.9375 -4.015625 -7.6875 -4.390625 -7.203125 -4.609375 C -6.8125 -4.796875 -5.8125 -4.90625 -4.53125 -4.90625 C -3.5 -4.90625 -2.484375 -4.8125 -2.109375 -4.671875 C -1.5625 -4.453125 -1.265625 -4.0625 -1.265625 -3.546875 C -1.265625 -3.0625 -1.515625 -2.703125 -1.96875 -2.484375 C -2.359375 -2.296875 -3.328125 -2.203125 -4.5625 -2.203125 C -5.65625 -2.203125 -6.6875 -2.28125 -7.078125 -2.4375 C -7.625 -2.625 -7.9375 -3.03125 -7.9375 -3.546875 Z M -7.9375 -3.546875 "/>
</g>
<g id="glyph-3-7">
<path d="M -1.890625 -2.78125 L -1.890625 -0.828125 L 0 -0.828125 L 0 -2.78125 Z M -1.890625 -2.78125 "/>
</g>
<g id="glyph-3-8">
<path d="M -4.125 -2.828125 C -4.125 -3.515625 -4.125 -3.5625 -4.03125 -3.890625 C -3.859375 -4.5 -3.328125 -4.890625 -2.65625 -4.890625 C -1.828125 -4.890625 -1.265625 -4.3125 -1.265625 -3.515625 C -1.265625 -2.671875 -1.75 -2.203125 -2.703125 -2.140625 L -2.703125 -0.375 C -0.859375 -0.390625 0.296875 -1.59375 0.296875 -3.484375 C 0.296875 -5.453125 -0.859375 -6.703125 -2.65625 -6.703125 C -3.734375 -6.703125 -4.4375 -6.234375 -4.9375 -5.203125 C -5.46875 -6.046875 -6.0625 -6.40625 -6.90625 -6.40625 C -8.4375 -6.40625 -9.40625 -5.265625 -9.40625 -3.484375 C -9.40625 -2.140625 -8.828125 -1.125 -7.828125 -0.71875 C -7.390625 -0.546875 -7.078125 -0.5 -6.3125 -0.5 L -6.3125 -2.1875 C -6.8125 -2.203125 -7.0625 -2.234375 -7.296875 -2.328125 C -7.703125 -2.5 -7.9375 -2.90625 -7.9375 -3.4375 C -7.9375 -4.171875 -7.5 -4.59375 -6.734375 -4.59375 C -5.796875 -4.59375 -5.34375 -4.0625 -5.34375 -2.984375 L -5.34375 -2.828125 Z M -4.125 -2.828125 "/>
</g>
<g id="glyph-3-9">
<path d="M -9.109375 -2.671875 C -9.109375 -1.359375 -8.046875 -0.28125 -6.75 -0.28125 C -5.453125 -0.28125 -4.375 -1.359375 -4.375 -2.671875 C -4.375 -3.984375 -5.4375 -5.0625 -6.71875 -5.0625 C -8.0625 -5.0625 -9.109375 -4.015625 -9.109375 -2.671875 Z M -7.828125 -2.671875 C -7.828125 -3.296875 -7.34375 -3.78125 -6.734375 -3.78125 C -6.140625 -3.78125 -5.65625 -3.28125 -5.65625 -2.671875 C -5.65625 -2.0625 -6.140625 -1.578125 -6.75 -1.578125 C -7.34375 -1.578125 -7.828125 -2.0625 -7.828125 -2.671875 Z M -9.21875 -7.875 L 0.265625 -2.734375 L 0.265625 -3.734375 L -9.21875 -8.859375 Z M -4.578125 -8.828125 C -4.578125 -7.5 -3.515625 -6.4375 -2.203125 -6.4375 C -0.890625 -6.4375 0.171875 -7.5 0.171875 -8.828125 C 0.171875 -10.140625 -0.890625 -11.21875 -2.171875 -11.21875 C -3.515625 -11.21875 -4.578125 -10.171875 -4.578125 -8.828125 Z M -3.28125 -8.828125 C -3.28125 -9.453125 -2.8125 -9.9375 -2.1875 -9.9375 C -1.59375 -9.9375 -1.109375 -9.421875 -1.109375 -8.828125 C -1.109375 -8.21875 -1.59375 -7.71875 -2.203125 -7.71875 C -2.796875 -7.71875 -3.28125 -8.21875 -3.28125 -8.828125 Z M -3.28125 -8.828125 "/>
</g>
<g id="glyph-3-10">
<path d="M 2.59375 -1.59375 C 0.34375 -3.078125 -1.4375 -3.703125 -3.4375 -3.703125 C -5.453125 -3.703125 -7.21875 -3.078125 -9.484375 -1.59375 L -9.484375 -0.28125 C -6.796875 -1.671875 -5.359375 -2.109375 -3.4375 -2.109375 C -1.515625 -2.109375 -0.046875 -1.65625 2.59375 -0.28125 Z M 2.59375 -1.59375 "/>
</g>
<g id="glyph-4-0">
<path d="M 3.609375 -4.15625 L 6.609375 -4.15625 C 8.75 -4.15625 10.125 -5.6875 10.125 -8.046875 C 10.125 -10.390625 8.796875 -11.65625 6.375 -11.65625 L 1.21875 -11.65625 L 1.21875 0 L 3.609375 0 Z M 3.609375 -6.15625 L 3.609375 -9.65625 L 5.859375 -9.65625 C 7.140625 -9.65625 7.734375 -9.109375 7.734375 -7.921875 C 7.734375 -6.71875 7.140625 -6.15625 5.859375 -6.15625 Z M 3.609375 -6.15625 "/>
</g>
<g id="glyph-4-1">
<path d="M 10.90625 -7.71875 C 10.828125 -8.71875 10.625 -9.359375 10.125 -10.015625 C 9.234375 -11.203125 7.796875 -11.859375 6.046875 -11.859375 C 2.75 -11.859375 0.703125 -9.5 0.703125 -5.734375 C 0.703125 -1.96875 2.734375 0.375 5.984375 0.375 C 8.890625 0.375 10.8125 -1.3125 10.953125 -3.984375 L 8.625 -3.984375 C 8.46875 -2.5 7.53125 -1.640625 6.046875 -1.640625 C 4.1875 -1.640625 3.109375 -3.15625 3.109375 -5.703125 C 3.109375 -8.265625 4.234375 -9.8125 6.125 -9.8125 C 7.515625 -9.8125 8.296875 -9.140625 8.625 -7.71875 Z M 10.90625 -7.71875 "/>
</g>
<g id="glyph-4-2">
<path d="M 8.015625 -2.359375 L 8.78125 0 L 11.25 0 L 7.21875 -11.65625 L 4.5625 -11.65625 L 0.421875 0 L 2.859375 0 L 3.640625 -2.359375 Z M 7.359375 -4.359375 L 4.3125 -4.359375 L 5.84375 -8.90625 Z M 7.359375 -4.359375 "/>
</g>
<g id="glyph-4-3">
</g>
<g id="glyph-4-4">
<path d="M 4.765625 -5.46875 L 0.421875 -5.46875 L 0.421875 -3.3125 L 4.765625 -3.3125 Z M 4.765625 -5.46875 "/>
</g>
<g id="glyph-4-5">
<path d="M 1.3125 0 L 6.5625 0 C 7.90625 0 8.796875 -0.25 9.5 -0.84375 C 10.203125 -1.4375 10.65625 -2.421875 10.65625 -3.359375 C 10.65625 -4.515625 10.046875 -5.421875 8.71875 -6.1875 C 9.875 -6.921875 10.3125 -7.59375 10.3125 -8.59375 C 10.3125 -9.40625 9.921875 -10.234375 9.265625 -10.8125 C 8.578125 -11.40625 7.765625 -11.65625 6.515625 -11.65625 L 1.3125 -11.65625 Z M 3.71875 -9.65625 L 6.3125 -9.65625 C 7.4375 -9.65625 8.015625 -9.21875 8.015625 -8.359375 C 8.015625 -7.46875 7.4375 -7.03125 6.3125 -7.03125 L 3.71875 -7.03125 Z M 3.71875 -5.03125 L 6.578125 -5.03125 C 7.75 -5.03125 8.359375 -4.515625 8.359375 -3.5 C 8.359375 -2.515625 7.75 -2 6.578125 -2 L 3.71875 -2 Z M 3.71875 -5.03125 "/>
</g>
<g id="glyph-4-6">
<path d="M 3.65625 -5.03125 L 9.25 -5.03125 L 9.25 -7.03125 L 3.65625 -7.03125 L 3.65625 -9.65625 L 9.703125 -9.65625 L 9.703125 -11.65625 L 1.265625 -11.65625 L 1.265625 0 L 9.984375 0 L 9.984375 -2 L 3.65625 -2 Z M 3.65625 -5.03125 "/>
</g>
<g id="glyph-4-7">
<path d="M 3.6875 -4.625 L 6.4375 -4.625 C 7.46875 -4.625 7.921875 -4.203125 7.921875 -3.25 L 7.921875 -2.765625 C 7.90625 -2.46875 7.90625 -2.171875 7.90625 -2 C 7.90625 -0.890625 7.96875 -0.5625 8.25 0 L 10.828125 0 L 10.828125 -0.4375 C 10.46875 -0.640625 10.3125 -0.875 10.3125 -1.390625 C 10.25 -4.828125 10.1875 -4.984375 8.703125 -5.625 C 10.015625 -6.140625 10.671875 -7.09375 10.671875 -8.515625 C 10.671875 -9.4375 10.359375 -10.28125 9.796875 -10.859375 C 9.265625 -11.40625 8.53125 -11.65625 7.53125 -11.65625 L 1.28125 -11.65625 L 1.28125 0 L 3.6875 0 Z M 3.6875 -6.625 L 3.6875 -9.65625 L 6.578125 -9.65625 C 7.265625 -9.65625 7.53125 -9.59375 7.84375 -9.359375 C 8.125 -9.125 8.265625 -8.71875 8.265625 -8.171875 C 8.265625 -7.609375 8.125 -7.171875 7.84375 -6.921875 C 7.5625 -6.703125 7.265625 -6.625 6.578125 -6.625 Z M 3.6875 -6.625 "/>
</g>
<g id="glyph-4-8">
<path d="M 6.15625 -9.65625 L 9.5625 -9.65625 L 9.5625 -11.65625 L 0.21875 -11.65625 L 0.21875 -9.65625 L 3.765625 -9.65625 L 3.765625 0 L 6.15625 0 Z M 6.15625 -9.65625 "/>
</g>
<g id="glyph-4-9">
<path d="M 3.25 -11.65625 C 1.40625 -8.875 0.640625 -6.703125 0.640625 -4.234375 C 0.640625 -1.765625 1.40625 0.421875 3.25 3.203125 L 4.84375 3.203125 C 3.140625 -0.09375 2.609375 -1.875 2.609375 -4.234375 C 2.609375 -6.59375 3.15625 -8.40625 4.84375 -11.65625 Z M 3.25 -11.65625 "/>
</g>
<g id="glyph-4-10">
<path d="M 3.8125 -7.828125 L 3.8125 0 L 6.046875 0 L 6.046875 -11.34375 L 4.5625 -11.34375 C 4.203125 -10 3.046875 -9.3125 1.09375 -9.3125 L 1.09375 -7.828125 Z M 3.8125 -7.828125 "/>
</g>
<g id="glyph-4-11">
<path d="M 8.359375 -4.375 L 7.171875 -4.375 L 7.171875 -11.34375 L 4.53125 -11.34375 L 0.390625 -4.40625 L 0.390625 -2.515625 L 4.921875 -2.515625 L 4.921875 0 L 7.171875 0 L 7.171875 -2.515625 L 8.359375 -2.515625 Z M 4.921875 -4.375 L 1.96875 -4.375 L 4.921875 -9.21875 Z M 4.921875 -4.375 "/>
</g>
<g id="glyph-4-12">
<path d="M 3.171875 -8.640625 L 0.921875 -8.640625 L 0.921875 3.484375 L 3.171875 3.484375 L 3.171875 -1.03125 C 3.71875 -0.0625 4.484375 0.390625 5.5625 0.390625 C 7.640625 0.390625 9.1875 -1.5625 9.1875 -4.1875 C 9.1875 -5.40625 8.828125 -6.625 8.25 -7.421875 C 7.6875 -8.234375 6.609375 -8.78125 5.5625 -8.78125 C 4.484375 -8.78125 3.71875 -8.3125 3.171875 -7.359375 Z M 5.0625 -6.90625 C 6.1875 -6.90625 6.9375 -5.828125 6.9375 -4.15625 C 6.9375 -2.578125 6.171875 -1.484375 5.0625 -1.484375 C 3.921875 -1.484375 3.171875 -2.578125 3.171875 -4.1875 C 3.171875 -5.828125 3.921875 -6.90625 5.0625 -6.90625 Z M 5.0625 -6.90625 "/>
</g>
<g id="glyph-4-13">
<path d="M 1.015625 -8.640625 L 1.015625 0 L 3.25 0 L 3.25 -4.59375 C 3.25 -5.90625 3.90625 -6.5625 5.21875 -6.5625 C 5.453125 -6.5625 5.609375 -6.546875 5.921875 -6.5 L 5.921875 -8.765625 C 5.796875 -8.78125 5.75 -8.78125 5.640625 -8.78125 C 4.625 -8.78125 3.75 -8.109375 3.25 -6.9375 L 3.25 -8.640625 Z M 1.015625 -8.640625 "/>
</g>
<g id="glyph-4-14">
<path d="M 4.8125 -8.78125 C 2.171875 -8.78125 0.5625 -7.046875 0.5625 -4.203125 C 0.5625 -1.359375 2.171875 0.375 4.828125 0.375 C 7.46875 0.375 9.109375 -1.359375 9.109375 -4.140625 C 9.109375 -7.078125 7.515625 -8.78125 4.8125 -8.78125 Z M 4.828125 -6.96875 C 6.0625 -6.96875 6.859375 -5.875 6.859375 -4.171875 C 6.859375 -2.5625 6.03125 -1.4375 4.828125 -1.4375 C 3.609375 -1.4375 2.796875 -2.546875 2.796875 -4.203125 C 2.796875 -5.875 3.609375 -6.96875 4.828125 -6.96875 Z M 4.828125 -6.96875 "/>
</g>
<g id="glyph-4-15">
<path d="M 4.8125 -8.46875 L 3.5625 -8.46875 L 3.5625 -10.78125 L 1.328125 -10.78125 L 1.328125 -8.46875 L 0.21875 -8.46875 L 0.21875 -6.96875 L 1.328125 -6.96875 L 1.328125 -1.65625 C 1.328125 -0.296875 2.046875 0.375 3.515625 0.375 C 4.03125 0.375 4.40625 0.3125 4.8125 0.1875 L 4.8125 -1.375 C 4.59375 -1.34375 4.484375 -1.328125 4.296875 -1.328125 C 3.71875 -1.328125 3.5625 -1.5 3.5625 -2.265625 L 3.5625 -6.96875 L 4.8125 -6.96875 Z M 4.8125 -8.46875 "/>
</g>
<g id="glyph-4-16">
<path d="M 8.390625 -3.609375 C 8.40625 -3.8125 8.40625 -3.890625 8.40625 -4 C 8.40625 -4.859375 8.265625 -5.65625 8.0625 -6.265625 C 7.484375 -7.84375 6.09375 -8.78125 4.359375 -8.78125 C 1.875 -8.78125 0.359375 -6.984375 0.359375 -4.09375 C 0.359375 -1.328125 1.859375 0.375 4.296875 0.375 C 6.234375 0.375 7.8125 -0.71875 8.296875 -2.4375 L 6.09375 -2.4375 C 5.828125 -1.75 5.203125 -1.34375 4.390625 -1.34375 C 3.75 -1.34375 3.234375 -1.609375 2.90625 -2.09375 C 2.703125 -2.421875 2.625 -2.796875 2.59375 -3.609375 Z M 2.625 -5.109375 C 2.765625 -6.4375 3.328125 -7.078125 4.3125 -7.078125 C 5.34375 -7.078125 5.953125 -6.390625 6.0625 -5.109375 Z M 2.625 -5.109375 "/>
</g>
<g id="glyph-4-17">
<path d="M 3.3125 -8.640625 L 1.078125 -8.640625 L 1.078125 0 L 3.3125 0 Z M 3.3125 -11.65625 L 1.078125 -11.65625 L 1.078125 -9.65625 L 3.3125 -9.65625 Z M 3.3125 -11.65625 "/>
</g>
<g id="glyph-4-18">
<path d="M 1.015625 -8.640625 L 1.015625 0 L 3.25 0 L 3.25 -5.1875 C 3.25 -6.203125 3.953125 -6.875 5.0625 -6.875 C 6.015625 -6.875 6.5 -6.359375 6.5 -5.328125 L 6.5 0 L 8.734375 0 L 8.734375 -5.796875 C 8.734375 -7.71875 7.703125 -8.78125 5.84375 -8.78125 C 4.671875 -8.78125 3.890625 -8.375 3.25 -7.390625 L 3.25 -8.640625 Z M 1.015625 -8.640625 "/>
</g>
<g id="glyph-4-19">
<path d="M 8.078125 -5.859375 C 8.046875 -7.6875 6.640625 -8.78125 4.3125 -8.78125 C 2.125 -8.78125 0.765625 -7.6875 0.765625 -5.90625 C 0.765625 -5.328125 0.9375 -4.828125 1.25 -4.5 C 1.546875 -4.1875 1.828125 -4.046875 2.65625 -3.78125 L 5.328125 -2.9375 C 5.890625 -2.765625 6.078125 -2.59375 6.078125 -2.234375 C 6.078125 -1.71875 5.453125 -1.390625 4.421875 -1.390625 C 3.828125 -1.390625 3.375 -1.484375 3.09375 -1.703125 C 2.84375 -1.875 2.75 -2.046875 2.65625 -2.515625 L 0.46875 -2.515625 C 0.53125 -0.609375 1.921875 0.375 4.546875 0.375 C 5.75 0.375 6.65625 0.109375 7.296875 -0.40625 C 7.9375 -0.90625 8.3125 -1.71875 8.3125 -2.5625 C 8.3125 -3.6875 7.765625 -4.40625 6.625 -4.734375 L 3.796875 -5.546875 C 3.171875 -5.75 3.015625 -5.875 3.015625 -6.21875 C 3.015625 -6.703125 3.515625 -7.03125 4.296875 -7.03125 C 5.375 -7.03125 5.90625 -6.640625 5.921875 -5.859375 Z M 8.078125 -5.859375 "/>
</g>
<g id="glyph-4-20">
<path d="M 1.953125 3.203125 C 3.796875 0.421875 4.5625 -1.765625 4.5625 -4.21875 C 4.5625 -6.703125 3.796875 -8.875 1.953125 -11.65625 L 0.359375 -11.65625 C 2.0625 -8.375 2.59375 -6.59375 2.59375 -4.21875 C 2.59375 -1.875 2.046875 -0.0625 0.359375 3.203125 Z M 1.953125 3.203125 "/>
</g>
</g>
<clipPath id="clip-0">
<path clip-rule="nonzero" d="M 56.246094 54.800781 L 274.511719 54.800781 L 274.511719 145.945312 L 56.246094 145.945312 Z M 56.246094 54.800781 "/>
</clipPath>
<clipPath id="clip-1">
<path clip-rule="nonzero" d="M 56.246094 134 L 274.511719 134 L 274.511719 136 L 56.246094 136 Z M 56.246094 134 "/>
</clipPath>
<clipPath id="clip-2">
<path clip-rule="nonzero" d="M 56.246094 114 L 274.511719 114 L 274.511719 116 L 56.246094 116 Z M 56.246094 114 "/>
</clipPath>
<clipPath id="clip-3">
<path clip-rule="nonzero" d="M 56.246094 95 L 274.511719 95 L 274.511719 97 L 56.246094 97 Z M 56.246094 95 "/>
</clipPath>
<clipPath id="clip-4">
<path clip-rule="nonzero" d="M 56.246094 76 L 274.511719 76 L 274.511719 78 L 56.246094 78 Z M 56.246094 76 "/>
</clipPath>
<clipPath id="clip-5">
<path clip-rule="nonzero" d="M 56.246094 56 L 274.511719 56 L 274.511719 58 L 56.246094 58 Z M 56.246094 56 "/>
</clipPath>
<clipPath id="clip-6">
<path clip-rule="nonzero" d="M 99 54.800781 L 102 54.800781 L 102 145.945312 L 99 145.945312 Z M 99 54.800781 "/>
</clipPath>
<clipPath id="clip-7">
<path clip-rule="nonzero" d="M 154 54.800781 L 156 54.800781 L 156 145.945312 L 154 145.945312 Z M 154 54.800781 "/>
</clipPath>
<clipPath id="clip-8">
<path clip-rule="nonzero" d="M 209 54.800781 L 211 54.800781 L 211 145.945312 L 209 145.945312 Z M 209 54.800781 "/>
</clipPath>
<clipPath id="clip-9">
<path clip-rule="nonzero" d="M 264 54.800781 L 266 54.800781 L 266 145.945312 L 264 145.945312 Z M 264 54.800781 "/>
</clipPath>
<clipPath id="clip-10">
<path clip-rule="nonzero" d="M 56.246094 95 L 274.511719 95 L 274.511719 97 L 56.246094 97 Z M 56.246094 95 "/>
</clipPath>
<clipPath id="clip-11">
<path clip-rule="nonzero" d="M 154 54.800781 L 156 54.800781 L 156 145.945312 L 154 145.945312 Z M 154 54.800781 "/>
</clipPath>
<clipPath id="clip-12">
<path clip-rule="nonzero" d="M 56.246094 185.585938 L 274.511719 185.585938 L 274.511719 276.730469 L 56.246094 276.730469 Z M 56.246094 185.585938 "/>
</clipPath>
<clipPath id="clip-13">
<path clip-rule="nonzero" d="M 56.246094 264 L 274.511719 264 L 274.511719 266 L 56.246094 266 Z M 56.246094 264 "/>
</clipPath>
<clipPath id="clip-14">
<path clip-rule="nonzero" d="M 56.246094 245 L 274.511719 245 L 274.511719 247 L 56.246094 247 Z M 56.246094 245 "/>
</clipPath>
<clipPath id="clip-15">
<path clip-rule="nonzero" d="M 56.246094 226 L 274.511719 226 L 274.511719 228 L 56.246094 228 Z M 56.246094 226 "/>
</clipPath>
<clipPath id="clip-16">
<path clip-rule="nonzero" d="M 56.246094 206 L 274.511719 206 L 274.511719 208 L 56.246094 208 Z M 56.246094 206 "/>
</clipPath>
<clipPath id="clip-17">
<path clip-rule="nonzero" d="M 56.246094 187 L 274.511719 187 L 274.511719 189 L 56.246094 189 Z M 56.246094 187 "/>
</clipPath>
<clipPath id="clip-18">
<path clip-rule="nonzero" d="M 99 185.585938 L 102 185.585938 L 102 276.730469 L 99 276.730469 Z M 99 185.585938 "/>
</clipPath>
<clipPath id="clip-19">
<path clip-rule="nonzero" d="M 154 185.585938 L 156 185.585938 L 156 276.730469 L 154 276.730469 Z M 154 185.585938 "/>
</clipPath>
<clipPath id="clip-20">
<path clip-rule="nonzero" d="M 209 185.585938 L 211 185.585938 L 211 276.730469 L 209 276.730469 Z M 209 185.585938 "/>
</clipPath>
<clipPath id="clip-21">
<path clip-rule="nonzero" d="M 264 185.585938 L 266 185.585938 L 266 276.730469 L 264 276.730469 Z M 264 185.585938 "/>
</clipPath>
<clipPath id="clip-22">
<path clip-rule="nonzero" d="M 56.246094 226 L 274.511719 226 L 274.511719 228 L 56.246094 228 Z M 56.246094 226 "/>
</clipPath>
<clipPath id="clip-23">
<path clip-rule="nonzero" d="M 154 185.585938 L 156 185.585938 L 156 276.730469 L 154 276.730469 Z M 154 185.585938 "/>
</clipPath>
<clipPath id="clip-24">
<path clip-rule="nonzero" d="M 291.792969 54.800781 L 510.058594 54.800781 L 510.058594 145.945312 L 291.792969 145.945312 Z M 291.792969 54.800781 "/>
</clipPath>
<clipPath id="clip-25">
<path clip-rule="nonzero" d="M 291.792969 134 L 510.058594 134 L 510.058594 136 L 291.792969 136 Z M 291.792969 134 "/>
</clipPath>
<clipPath id="clip-26">
<path clip-rule="nonzero" d="M 291.792969 114 L 510.058594 114 L 510.058594 116 L 291.792969 116 Z M 291.792969 114 "/>
</clipPath>
<clipPath id="clip-27">
<path clip-rule="nonzero" d="M 291.792969 95 L 510.058594 95 L 510.058594 97 L 291.792969 97 Z M 291.792969 95 "/>
</clipPath>
<clipPath id="clip-28">
<path clip-rule="nonzero" d="M 291.792969 76 L 510.058594 76 L 510.058594 78 L 291.792969 78 Z M 291.792969 76 "/>
</clipPath>
<clipPath id="clip-29">
<path clip-rule="nonzero" d="M 291.792969 56 L 510.058594 56 L 510.058594 58 L 291.792969 58 Z M 291.792969 56 "/>
</clipPath>
<clipPath id="clip-30">
<path clip-rule="nonzero" d="M 335 54.800781 L 337 54.800781 L 337 145.945312 L 335 145.945312 Z M 335 54.800781 "/>
</clipPath>
<clipPath id="clip-31">
<path clip-rule="nonzero" d="M 390 54.800781 L 392 54.800781 L 392 145.945312 L 390 145.945312 Z M 390 54.800781 "/>
</clipPath>
<clipPath id="clip-32">
<path clip-rule="nonzero" d="M 444 54.800781 L 446 54.800781 L 446 145.945312 L 444 145.945312 Z M 444 54.800781 "/>
</clipPath>
<clipPath id="clip-33">
<path clip-rule="nonzero" d="M 499 54.800781 L 501 54.800781 L 501 145.945312 L 499 145.945312 Z M 499 54.800781 "/>
</clipPath>
<clipPath id="clip-34">
<path clip-rule="nonzero" d="M 291.792969 95 L 510.058594 95 L 510.058594 97 L 291.792969 97 Z M 291.792969 95 "/>
</clipPath>
<clipPath id="clip-35">
<path clip-rule="nonzero" d="M 390 54.800781 L 392 54.800781 L 392 145.945312 L 390 145.945312 Z M 390 54.800781 "/>
</clipPath>
<clipPath id="clip-36">
<path clip-rule="nonzero" d="M 291.792969 185.585938 L 510.058594 185.585938 L 510.058594 276.730469 L 291.792969 276.730469 Z M 291.792969 185.585938 "/>
</clipPath>
<clipPath id="clip-37">
<path clip-rule="nonzero" d="M 291.792969 264 L 510.058594 264 L 510.058594 266 L 291.792969 266 Z M 291.792969 264 "/>
</clipPath>
<clipPath id="clip-38">
<path clip-rule="nonzero" d="M 291.792969 245 L 510.058594 245 L 510.058594 247 L 291.792969 247 Z M 291.792969 245 "/>
</clipPath>
<clipPath id="clip-39">
<path clip-rule="nonzero" d="M 291.792969 226 L 510.058594 226 L 510.058594 228 L 291.792969 228 Z M 291.792969 226 "/>
</clipPath>
<clipPath id="clip-40">
<path clip-rule="nonzero" d="M 291.792969 206 L 510.058594 206 L 510.058594 208 L 291.792969 208 Z M 291.792969 206 "/>
</clipPath>
<clipPath id="clip-41">
<path clip-rule="nonzero" d="M 291.792969 187 L 510.058594 187 L 510.058594 189 L 291.792969 189 Z M 291.792969 187 "/>
</clipPath>
<clipPath id="clip-42">
<path clip-rule="nonzero" d="M 335 185.585938 L 337 185.585938 L 337 276.730469 L 335 276.730469 Z M 335 185.585938 "/>
</clipPath>
<clipPath id="clip-43">
<path clip-rule="nonzero" d="M 390 185.585938 L 392 185.585938 L 392 276.730469 L 390 276.730469 Z M 390 185.585938 "/>
</clipPath>
<clipPath id="clip-44">
<path clip-rule="nonzero" d="M 444 185.585938 L 446 185.585938 L 446 276.730469 L 444 276.730469 Z M 444 185.585938 "/>
</clipPath>
<clipPath id="clip-45">
<path clip-rule="nonzero" d="M 499 185.585938 L 501 185.585938 L 501 276.730469 L 499 276.730469 Z M 499 185.585938 "/>
</clipPath>
<clipPath id="clip-46">
<path clip-rule="nonzero" d="M 291.792969 226 L 510.058594 226 L 510.058594 228 L 291.792969 228 Z M 291.792969 226 "/>
</clipPath>
<clipPath id="clip-47">
<path clip-rule="nonzero" d="M 390 185.585938 L 392 185.585938 L 392 276.730469 L 390 276.730469 Z M 390 185.585938 "/>
</clipPath>
</defs>
<rect x="-52.5" y="-32.4" width="630" height="388.8" fill="rgb(100%, 100%, 100%)" fill-opacity="1"/>
<g clip-path="url(#clip-0)">
<path fill-rule="nonzero" fill="rgb(100%, 100%, 100%)" fill-opacity="1" d="M 56.246094 145.945312 L 274.511719 145.945312 L 274.511719 54.800781 L 56.246094 54.800781 Z M 56.246094 145.945312 "/>
</g>
<g clip-path="url(#clip-1)">
<path fill="none" stroke-width="1.066978" stroke-linecap="butt" stroke-linejoin="round" stroke="rgb(94.509804%, 95.294118%, 95.686275%)" stroke-opacity="1" stroke-dasharray="1.066978 3.200935" stroke-miterlimit="10" d="M 56.246094 134.644531 L 274.511719 134.644531 "/>
</g>
<g clip-path="url(#clip-2)">
<path fill="none" stroke-width="1.066978" stroke-linecap="butt" stroke-linejoin="round" stroke="rgb(94.509804%, 95.294118%, 95.686275%)" stroke-opacity="1" stroke-dasharray="1.066978 3.200935" stroke-miterlimit="10" d="M 56.246094 115.289062 L 274.511719 115.289062 "/>
</g>
<g clip-path="url(#clip-3)">
<path fill="none" stroke-width="1.066978" stroke-linecap="butt" stroke-linejoin="round" stroke="rgb(94.509804%, 95.294118%, 95.686275%)" stroke-opacity="1" stroke-dasharray="1.066978 3.200935" stroke-miterlimit="10" d="M 56.246094 95.933594 L 274.511719 95.933594 "/>
</g>
<g clip-path="url(#clip-4)">
<path fill="none" stroke-width="1.066978" stroke-linecap="butt" stroke-linejoin="round" stroke="rgb(94.509804%, 95.294118%, 95.686275%)" stroke-opacity="1" stroke-dasharray="1.066978 3.200935" stroke-miterlimit="10" d="M 56.246094 76.578125 L 274.511719 76.578125 "/>
</g>
<g clip-path="url(#clip-5)">
<path fill="none" stroke-width="1.066978" stroke-linecap="butt" stroke-linejoin="round" stroke="rgb(94.509804%, 95.294118%, 95.686275%)" stroke-opacity="1" stroke-dasharray="1.066978 3.200935" stroke-miterlimit="10" d="M 56.246094 57.222656 L 274.511719 57.222656 "/>
</g>
<g clip-path="url(#clip-6)">
<path fill="none" stroke-width="1.066978" stroke-linecap="butt" stroke-linejoin="round" stroke="rgb(94.509804%, 95.294118%, 95.686275%)" stroke-opacity="1" stroke-dasharray="1.066978 3.200935" stroke-miterlimit="10" d="M 100.511719 145.945312 L 100.511719 54.800781 "/>
</g>
<g clip-path="url(#clip-7)">
<path fill="none" stroke-width="1.066978" stroke-linecap="butt" stroke-linejoin="round" stroke="rgb(94.509804%, 95.294118%, 95.686275%)" stroke-opacity="1" stroke-dasharray="1.066978 3.200935" stroke-miterlimit="10" d="M 155.199219 145.945312 L 155.199219 54.800781 "/>
</g>
<g clip-path="url(#clip-8)">
<path fill="none" stroke-width="1.066978" stroke-linecap="butt" stroke-linejoin="round" stroke="rgb(94.509804%, 95.294118%, 95.686275%)" stroke-opacity="1" stroke-dasharray="1.066978 3.200935" stroke-miterlimit="10" d="M 209.890625 145.945312 L 209.890625 54.800781 "/>
</g>
<g clip-path="url(#clip-9)">
<path fill="none" stroke-width="1.066978" stroke-linecap="butt" stroke-linejoin="round" stroke="rgb(94.509804%, 95.294118%, 95.686275%)" stroke-opacity="1" stroke-dasharray="1.066978 3.200935" stroke-miterlimit="10" d="M 264.578125 145.945312 L 264.578125 54.800781 "/>
</g>
<g clip-path="url(#clip-10)">
<path fill="none" stroke-width="0.853583" stroke-linecap="butt" stroke-linejoin="round" stroke="rgb(67.843137%, 70.980392%, 74.117647%)" stroke-opacity="1" stroke-dasharray="3.414331 3.414331" stroke-miterlimit="10" d="M 56.246094 95.933594 L 274.511719 95.933594 "/>
</g>
<g clip-path="url(#clip-11)">
<path fill="none" stroke-width="0.853583" stroke-linecap="butt" stroke-linejoin="round" stroke="rgb(67.843137%, 70.980392%, 74.117647%)" stroke-opacity="1" stroke-dasharray="3.414331 3.414331" stroke-miterlimit="10" d="M 155.199219 145.945312 L 155.199219 54.800781 "/>
</g>
<path fill-rule="nonzero" fill="rgb(88.235294%, 41.568627%, 52.54902%)" fill-opacity="0.85098" stroke-width="0.837509" stroke-linecap="round" stroke-linejoin="round" stroke="rgb(88.235294%, 41.568627%, 52.54902%)" stroke-opacity="0.85098" stroke-miterlimit="10" d="M 98.707031 70.347656 C 98.707031 73.894531 93.386719 73.894531 93.386719 70.347656 C 93.386719 66.800781 98.707031 66.800781 98.707031 70.347656 "/>
<path fill-rule="nonzero" fill="rgb(88.235294%, 41.568627%, 52.54902%)" fill-opacity="0.85098" stroke-width="0.837509" stroke-linecap="round" stroke-linejoin="round" stroke="rgb(88.235294%, 41.568627%, 52.54902%)" stroke-opacity="0.85098" stroke-miterlimit="10" d="M 69.917969 79.808594 C 69.917969 83.351562 64.597656 83.351562 64.597656 79.808594 C 64.597656 76.261719 69.917969 76.261719 69.917969 79.808594 "/>
<path fill-rule="nonzero" fill="rgb(88.235294%, 41.568627%, 52.54902%)" fill-opacity="0.85098" stroke-width="0.837509" stroke-linecap="round" stroke-linejoin="round" stroke="rgb(88.235294%, 41.568627%, 52.54902%)" stroke-opacity="0.85098" stroke-miterlimit="10" d="M 97.164062 86.617188 C 97.164062 90.160156 91.84375 90.160156 91.84375 86.617188 C 91.84375 83.070312 97.164062 83.070312 97.164062 86.617188 "/>
<path fill-rule="nonzero" fill="rgb(88.235294%, 41.568627%, 52.54902%)" fill-opacity="0.85098" stroke-width="0.837509" stroke-linecap="round" stroke-linejoin="round" stroke="rgb(88.235294%, 41.568627%, 52.54902%)" stroke-opacity="0.85098" stroke-miterlimit="10" d="M 68.828125 110.519531 C 68.828125 114.066406 63.507812 114.066406 63.507812 110.519531 C 63.507812 106.972656 68.828125 106.972656 68.828125 110.519531 "/>
<path fill-rule="nonzero" fill="rgb(81.960784%, 48.235294%, 26.666667%)" fill-opacity="0.85098" stroke-width="0.837509" stroke-linecap="round" stroke-linejoin="round" stroke="rgb(81.960784%, 48.235294%, 26.666667%)" stroke-opacity="0.85098" stroke-miterlimit="10" d="M 117.640625 105.09375 C 117.640625 108.640625 112.320312 108.640625 112.320312 105.09375 C 112.320312 101.546875 117.640625 101.546875 117.640625 105.09375 "/>
<path fill-rule="nonzero" fill="rgb(81.960784%, 48.235294%, 26.666667%)" fill-opacity="0.85098" stroke-width="0.837509" stroke-linecap="round" stroke-linejoin="round" stroke="rgb(81.960784%, 48.235294%, 26.666667%)" stroke-opacity="0.85098" stroke-miterlimit="10" d="M 174.804688 58.941406 C 174.804688 62.488281 169.488281 62.488281 169.488281 58.941406 C 169.488281 55.398438 174.804688 55.398438 174.804688 58.941406 "/>
<path fill-rule="nonzero" fill="rgb(81.960784%, 48.235294%, 26.666667%)" fill-opacity="0.85098" stroke-width="0.837509" stroke-linecap="round" stroke-linejoin="round" stroke="rgb(81.960784%, 48.235294%, 26.666667%)" stroke-opacity="0.85098" stroke-miterlimit="10" d="M 97.992188 141.804688 C 97.992188 145.347656 92.671875 145.347656 92.671875 141.804688 C 92.671875 138.257812 97.992188 138.257812 97.992188 141.804688 "/>
<path fill-rule="nonzero" fill="rgb(81.960784%, 48.235294%, 26.666667%)" fill-opacity="0.85098" stroke-width="0.837509" stroke-linecap="round" stroke-linejoin="round" stroke="rgb(81.960784%, 48.235294%, 26.666667%)" stroke-opacity="0.85098" stroke-miterlimit="10" d="M 167.496094 86.109375 C 167.496094 89.65625 162.175781 89.65625 162.175781 86.109375 C 162.175781 82.5625 167.496094 82.5625 167.496094 86.109375 "/>
<path fill-rule="nonzero" fill="rgb(69.803922%, 55.294118%, 0%)" fill-opacity="0.85098" stroke-width="0.837509" stroke-linecap="round" stroke-linejoin="round" stroke="rgb(69.803922%, 55.294118%, 0%)" stroke-opacity="0.85098" stroke-miterlimit="10" d="M 264.683594 81.667969 C 264.683594 85.214844 259.367188 85.214844 259.367188 81.667969 C 259.367188 78.125 264.683594 78.125 264.683594 81.667969 "/>
<path fill-rule="nonzero" fill="rgb(69.803922%, 55.294118%, 0%)" fill-opacity="0.85098" stroke-width="0.837509" stroke-linecap="round" stroke-linejoin="round" stroke="rgb(69.803922%, 55.294118%, 0%)" stroke-opacity="0.85098" stroke-miterlimit="10" d="M 226.515625 119.945312 C 226.515625 123.488281 221.199219 123.488281 221.199219 119.945312 C 221.199219 116.398438 226.515625 116.398438 226.515625 119.945312 "/>
<path fill-rule="nonzero" fill="rgb(69.803922%, 55.294118%, 0%)" fill-opacity="0.85098" stroke-width="0.837509" stroke-linecap="round" stroke-linejoin="round" stroke="rgb(69.803922%, 55.294118%, 0%)" stroke-opacity="0.85098" stroke-miterlimit="10" d="M 267.25 93.125 C 267.25 96.667969 261.929688 96.667969 261.929688 93.125 C 261.929688 89.578125 267.25 89.578125 267.25 93.125 "/>
<path fill-rule="nonzero" fill="rgb(69.803922%, 55.294118%, 0%)" fill-opacity="0.85098" stroke-width="0.837509" stroke-linecap="round" stroke-linejoin="round" stroke="rgb(69.803922%, 55.294118%, 0%)" stroke-opacity="0.85098" stroke-miterlimit="10" d="M 243.3125 117.234375 C 243.3125 120.777344 237.992188 120.777344 237.992188 117.234375 C 237.992188 113.6875 243.3125 113.6875 243.3125 117.234375 "/>
<g clip-path="url(#clip-12)">
<path fill-rule="nonzero" fill="rgb(100%, 100%, 100%)" fill-opacity="1" d="M 56.246094 276.734375 L 274.511719 276.734375 L 274.511719 185.589844 L 56.246094 185.589844 Z M 56.246094 276.734375 "/>
</g>
<g clip-path="url(#clip-13)">
<path fill="none" stroke-width="1.066978" stroke-linecap="butt" stroke-linejoin="round" stroke="rgb(94.509804%, 95.294118%, 95.686275%)" stroke-opacity="1" stroke-dasharray="1.066978 3.200935" stroke-miterlimit="10" d="M 56.246094 265.429688 L 274.511719 265.429688 "/>
</g>
<g clip-path="url(#clip-14)">
<path fill="none" stroke-width="1.066978" stroke-linecap="butt" stroke-linejoin="round" stroke="rgb(94.509804%, 95.294118%, 95.686275%)" stroke-opacity="1" stroke-dasharray="1.066978 3.200935" stroke-miterlimit="10" d="M 56.246094 246.078125 L 274.511719 246.078125 "/>
</g>
<g clip-path="url(#clip-15)">
<path fill="none" stroke-width="1.066978" stroke-linecap="butt" stroke-linejoin="round" stroke="rgb(94.509804%, 95.294118%, 95.686275%)" stroke-opacity="1" stroke-dasharray="1.066978 3.200935" stroke-miterlimit="10" d="M 56.246094 226.722656 L 274.511719 226.722656 "/>
</g>
<g clip-path="url(#clip-16)">
<path fill="none" stroke-width="1.066978" stroke-linecap="butt" stroke-linejoin="round" stroke="rgb(94.509804%, 95.294118%, 95.686275%)" stroke-opacity="1" stroke-dasharray="1.066978 3.200935" stroke-miterlimit="10" d="M 56.246094 207.367188 L 274.511719 207.367188 "/>
</g>
<g clip-path="url(#clip-17)">
<path fill="none" stroke-width="1.066978" stroke-linecap="butt" stroke-linejoin="round" stroke="rgb(94.509804%, 95.294118%, 95.686275%)" stroke-opacity="1" stroke-dasharray="1.066978 3.200935" stroke-miterlimit="10" d="M 56.246094 188.011719 L 274.511719 188.011719 "/>
</g>
<g clip-path="url(#clip-18)">
<path fill="none" stroke-width="1.066978" stroke-linecap="butt" stroke-linejoin="round" stroke="rgb(94.509804%, 95.294118%, 95.686275%)" stroke-opacity="1" stroke-dasharray="1.066978 3.200935" stroke-miterlimit="10" d="M 100.511719 276.734375 L 100.511719 185.585938 "/>
</g>
<g clip-path="url(#clip-19)">
<path fill="none" stroke-width="1.066978" stroke-linecap="butt" stroke-linejoin="round" stroke="rgb(94.509804%, 95.294118%, 95.686275%)" stroke-opacity="1" stroke-dasharray="1.066978 3.200935" stroke-miterlimit="10" d="M 155.199219 276.734375 L 155.199219 185.585938 "/>
</g>
<g clip-path="url(#clip-20)">
<path fill="none" stroke-width="1.066978" stroke-linecap="butt" stroke-linejoin="round" stroke="rgb(94.509804%, 95.294118%, 95.686275%)" stroke-opacity="1" stroke-dasharray="1.066978 3.200935" stroke-miterlimit="10" d="M 209.890625 276.734375 L 209.890625 185.585938 "/>
</g>
<g clip-path="url(#clip-21)">
<path fill="none" stroke-width="1.066978" stroke-linecap="butt" stroke-linejoin="round" stroke="rgb(94.509804%, 95.294118%, 95.686275%)" stroke-opacity="1" stroke-dasharray="1.066978 3.200935" stroke-miterlimit="10" d="M 264.578125 276.734375 L 264.578125 185.585938 "/>
</g>
<g clip-path="url(#clip-22)">
<path fill="none" stroke-width="0.853583" stroke-linecap="butt" stroke-linejoin="round" stroke="rgb(67.843137%, 70.980392%, 74.117647%)" stroke-opacity="1" stroke-dasharray="3.414331 3.414331" stroke-miterlimit="10" d="M 56.246094 226.722656 L 274.511719 226.722656 "/>
</g>
<g clip-path="url(#clip-23)">
<path fill="none" stroke-width="0.853583" stroke-linecap="butt" stroke-linejoin="round" stroke="rgb(67.843137%, 70.980392%, 74.117647%)" stroke-opacity="1" stroke-dasharray="3.414331 3.414331" stroke-miterlimit="10" d="M 155.199219 276.734375 L 155.199219 185.585938 "/>
</g>
<path fill-rule="nonzero" fill="rgb(0%, 67.843137%, 49.803922%)" fill-opacity="0.85098" stroke-width="0.837509" stroke-linecap="round" stroke-linejoin="round" stroke="rgb(0%, 67.843137%, 49.803922%)" stroke-opacity="0.85098" stroke-miterlimit="10" d="M 98.707031 201.136719 C 98.707031 204.679688 93.386719 204.679688 93.386719 201.136719 C 93.386719 197.589844 98.707031 197.589844 98.707031 201.136719 "/>
<path fill-rule="nonzero" fill="rgb(0%, 67.843137%, 49.803922%)" fill-opacity="0.85098" stroke-width="0.837509" stroke-linecap="round" stroke-linejoin="round" stroke="rgb(0%, 67.843137%, 49.803922%)" stroke-opacity="0.85098" stroke-miterlimit="10" d="M 69.917969 210.59375 C 69.917969 214.140625 64.597656 214.140625 64.597656 210.59375 C 64.597656 207.046875 69.917969 207.046875 69.917969 210.59375 "/>
<path fill-rule="nonzero" fill="rgb(0%, 67.058824%, 69.803922%)" fill-opacity="0.85098" stroke-width="0.837509" stroke-linecap="round" stroke-linejoin="round" stroke="rgb(0%, 67.058824%, 69.803922%)" stroke-opacity="0.85098" stroke-miterlimit="10" d="M 97.164062 217.402344 C 97.164062 220.949219 91.84375 220.949219 91.84375 217.402344 C 91.84375 213.855469 97.164062 213.855469 97.164062 217.402344 "/>
<path fill-rule="nonzero" fill="rgb(0%, 67.058824%, 69.803922%)" fill-opacity="0.85098" stroke-width="0.837509" stroke-linecap="round" stroke-linejoin="round" stroke="rgb(0%, 67.058824%, 69.803922%)" stroke-opacity="0.85098" stroke-miterlimit="10" d="M 68.828125 241.308594 C 68.828125 244.855469 63.507812 244.855469 63.507812 241.308594 C 63.507812 237.761719 68.828125 237.761719 68.828125 241.308594 "/>
<path fill-rule="nonzero" fill="rgb(0%, 67.843137%, 49.803922%)" fill-opacity="0.85098" stroke-width="0.837509" stroke-linecap="round" stroke-linejoin="round" stroke="rgb(0%, 67.843137%, 49.803922%)" stroke-opacity="0.85098" stroke-miterlimit="10" d="M 117.640625 235.882812 C 117.640625 239.425781 112.320312 239.425781 112.320312 235.882812 C 112.320312 232.335938 117.640625 232.335938 117.640625 235.882812 "/>
<path fill-rule="nonzero" fill="rgb(0%, 67.843137%, 49.803922%)" fill-opacity="0.85098" stroke-width="0.837509" stroke-linecap="round" stroke-linejoin="round" stroke="rgb(0%, 67.843137%, 49.803922%)" stroke-opacity="0.85098" stroke-miterlimit="10" d="M 174.804688 189.730469 C 174.804688 193.277344 169.488281 193.277344 169.488281 189.730469 C 169.488281 186.183594 174.804688 186.183594 174.804688 189.730469 "/>
<path fill-rule="nonzero" fill="rgb(0%, 67.058824%, 69.803922%)" fill-opacity="0.85098" stroke-width="0.837509" stroke-linecap="round" stroke-linejoin="round" stroke="rgb(0%, 67.058824%, 69.803922%)" stroke-opacity="0.85098" stroke-miterlimit="10" d="M 97.992188 272.589844 C 97.992188 276.136719 92.671875 276.136719 92.671875 272.589844 C 92.671875 269.042969 97.992188 269.042969 97.992188 272.589844 "/>
<path fill-rule="nonzero" fill="rgb(0%, 67.058824%, 69.803922%)" fill-opacity="0.85098" stroke-width="0.837509" stroke-linecap="round" stroke-linejoin="round" stroke="rgb(0%, 67.058824%, 69.803922%)" stroke-opacity="0.85098" stroke-miterlimit="10" d="M 167.496094 216.894531 C 167.496094 220.441406 162.175781 220.441406 162.175781 216.894531 C 162.175781 213.351562 167.496094 213.351562 167.496094 216.894531 "/>
<path fill-rule="nonzero" fill="rgb(0%, 67.843137%, 49.803922%)" fill-opacity="0.85098" stroke-width="0.837509" stroke-linecap="round" stroke-linejoin="round" stroke="rgb(0%, 67.843137%, 49.803922%)" stroke-opacity="0.85098" stroke-miterlimit="10" d="M 264.683594 212.457031 C 264.683594 216.003906 259.367188 216.003906 259.367188 212.457031 C 259.367188 208.910156 264.683594 208.910156 264.683594 212.457031 "/>
<path fill-rule="nonzero" fill="rgb(0%, 67.843137%, 49.803922%)" fill-opacity="0.85098" stroke-width="0.837509" stroke-linecap="round" stroke-linejoin="round" stroke="rgb(0%, 67.843137%, 49.803922%)" stroke-opacity="0.85098" stroke-miterlimit="10" d="M 226.515625 250.730469 C 226.515625 254.277344 221.199219 254.277344 221.199219 250.730469 C 221.199219 247.1875 226.515625 247.1875 226.515625 250.730469 "/>
<path fill-rule="nonzero" fill="rgb(0%, 67.058824%, 69.803922%)" fill-opacity="0.85098" stroke-width="0.837509" stroke-linecap="round" stroke-linejoin="round" stroke="rgb(0%, 67.058824%, 69.803922%)" stroke-opacity="0.85098" stroke-miterlimit="10" d="M 267.25 223.910156 C 267.25 227.457031 261.929688 227.457031 261.929688 223.910156 C 261.929688 220.367188 267.25 220.367188 267.25 223.910156 "/>
<path fill-rule="nonzero" fill="rgb(0%, 67.058824%, 69.803922%)" fill-opacity="0.85098" stroke-width="0.837509" stroke-linecap="round" stroke-linejoin="round" stroke="rgb(0%, 67.058824%, 69.803922%)" stroke-opacity="0.85098" stroke-miterlimit="10" d="M 243.3125 248.019531 C 243.3125 251.566406 237.992188 251.566406 237.992188 248.019531 C 237.992188 244.472656 243.3125 244.472656 243.3125 248.019531 "/>
<g clip-path="url(#clip-24)">
<path fill-rule="nonzero" fill="rgb(100%, 100%, 100%)" fill-opacity="1" d="M 291.792969 145.945312 L 510.058594 145.945312 L 510.058594 54.800781 L 291.792969 54.800781 Z M 291.792969 145.945312 "/>
</g>
<g clip-path="url(#clip-25)">
<path fill="none" stroke-width="1.066978" stroke-linecap="butt" stroke-linejoin="round" stroke="rgb(94.509804%, 95.294118%, 95.686275%)" stroke-opacity="1" stroke-dasharray="1.066978 3.200935" stroke-miterlimit="10" d="M 291.792969 134.644531 L 510.054688 134.644531 "/>
</g>
<g clip-path="url(#clip-26)">
<path fill="none" stroke-width="1.066978" stroke-linecap="butt" stroke-linejoin="round" stroke="rgb(94.509804%, 95.294118%, 95.686275%)" stroke-opacity="1" stroke-dasharray="1.066978 3.200935" stroke-miterlimit="10" d="M 291.792969 115.289062 L 510.054688 115.289062 "/>
</g>
<g clip-path="url(#clip-27)">
<path fill="none" stroke-width="1.066978" stroke-linecap="butt" stroke-linejoin="round" stroke="rgb(94.509804%, 95.294118%, 95.686275%)" stroke-opacity="1" stroke-dasharray="1.066978 3.200935" stroke-miterlimit="10" d="M 291.792969 95.933594 L 510.054688 95.933594 "/>
</g>
<g clip-path="url(#clip-28)">
<path fill="none" stroke-width="1.066978" stroke-linecap="butt" stroke-linejoin="round" stroke="rgb(94.509804%, 95.294118%, 95.686275%)" stroke-opacity="1" stroke-dasharray="1.066978 3.200935" stroke-miterlimit="10" d="M 291.792969 76.578125 L 510.054688 76.578125 "/>
</g>
<g clip-path="url(#clip-29)">
<path fill="none" stroke-width="1.066978" stroke-linecap="butt" stroke-linejoin="round" stroke="rgb(94.509804%, 95.294118%, 95.686275%)" stroke-opacity="1" stroke-dasharray="1.066978 3.200935" stroke-miterlimit="10" d="M 291.792969 57.222656 L 510.054688 57.222656 "/>
</g>
<g clip-path="url(#clip-30)">
<path fill="none" stroke-width="1.066978" stroke-linecap="butt" stroke-linejoin="round" stroke="rgb(94.509804%, 95.294118%, 95.686275%)" stroke-opacity="1" stroke-dasharray="1.066978 3.200935" stroke-miterlimit="10" d="M 336.054688 145.945312 L 336.054688 54.800781 "/>
</g>
<g clip-path="url(#clip-31)">
<path fill="none" stroke-width="1.066978" stroke-linecap="butt" stroke-linejoin="round" stroke="rgb(94.509804%, 95.294118%, 95.686275%)" stroke-opacity="1" stroke-dasharray="1.066978 3.200935" stroke-miterlimit="10" d="M 390.742188 145.945312 L 390.742188 54.800781 "/>
</g>
<g clip-path="url(#clip-32)">
<path fill="none" stroke-width="1.066978" stroke-linecap="butt" stroke-linejoin="round" stroke="rgb(94.509804%, 95.294118%, 95.686275%)" stroke-opacity="1" stroke-dasharray="1.066978 3.200935" stroke-miterlimit="10" d="M 445.433594 145.945312 L 445.433594 54.800781 "/>
</g>
<g clip-path="url(#clip-33)">
<path fill="none" stroke-width="1.066978" stroke-linecap="butt" stroke-linejoin="round" stroke="rgb(94.509804%, 95.294118%, 95.686275%)" stroke-opacity="1" stroke-dasharray="1.066978 3.200935" stroke-miterlimit="10" d="M 500.121094 145.945312 L 500.121094 54.800781 "/>
</g>
<g clip-path="url(#clip-34)">
<path fill="none" stroke-width="0.853583" stroke-linecap="butt" stroke-linejoin="round" stroke="rgb(67.843137%, 70.980392%, 74.117647%)" stroke-opacity="1" stroke-dasharray="3.414331 3.414331" stroke-miterlimit="10" d="M 291.792969 95.933594 L 510.054688 95.933594 "/>
</g>
<g clip-path="url(#clip-35)">
<path fill="none" stroke-width="0.853583" stroke-linecap="butt" stroke-linejoin="round" stroke="rgb(67.843137%, 70.980392%, 74.117647%)" stroke-opacity="1" stroke-dasharray="3.414331 3.414331" stroke-miterlimit="10" d="M 390.742188 145.945312 L 390.742188 54.800781 "/>
</g>
<path fill-rule="nonzero" fill="rgb(50.980392%, 61.176471%, 0%)" fill-opacity="0.85098" stroke-width="0.837509" stroke-linecap="round" stroke-linejoin="round" stroke="rgb(50.980392%, 61.176471%, 0%)" stroke-opacity="0.85098" stroke-miterlimit="10" d="M 334.25 70.347656 C 334.25 73.894531 328.933594 73.894531 328.933594 70.347656 C 328.933594 66.800781 334.25 66.800781 334.25 70.347656 "/>
<path fill-rule="nonzero" fill="rgb(12.54902%, 65.490196%, 23.529412%)" fill-opacity="0.85098" stroke-width="0.837509" stroke-linecap="round" stroke-linejoin="round" stroke="rgb(12.54902%, 65.490196%, 23.529412%)" stroke-opacity="0.85098" stroke-miterlimit="10" d="M 305.460938 79.808594 C 305.460938 83.351562 300.140625 83.351562 300.140625 79.808594 C 300.140625 76.261719 305.460938 76.261719 305.460938 79.808594 "/>
<path fill-rule="nonzero" fill="rgb(50.980392%, 61.176471%, 0%)" fill-opacity="0.85098" stroke-width="0.837509" stroke-linecap="round" stroke-linejoin="round" stroke="rgb(50.980392%, 61.176471%, 0%)" stroke-opacity="0.85098" stroke-miterlimit="10" d="M 332.707031 86.617188 C 332.707031 90.160156 327.390625 90.160156 327.390625 86.617188 C 327.390625 83.070312 332.707031 83.070312 332.707031 86.617188 "/>
<path fill-rule="nonzero" fill="rgb(12.54902%, 65.490196%, 23.529412%)" fill-opacity="0.85098" stroke-width="0.837509" stroke-linecap="round" stroke-linejoin="round" stroke="rgb(12.54902%, 65.490196%, 23.529412%)" stroke-opacity="0.85098" stroke-miterlimit="10" d="M 304.371094 110.519531 C 304.371094 114.066406 299.054688 114.066406 299.054688 110.519531 C 299.054688 106.972656 304.371094 106.972656 304.371094 110.519531 "/>
<path fill-rule="nonzero" fill="rgb(50.980392%, 61.176471%, 0%)" fill-opacity="0.85098" stroke-width="0.837509" stroke-linecap="round" stroke-linejoin="round" stroke="rgb(50.980392%, 61.176471%, 0%)" stroke-opacity="0.85098" stroke-miterlimit="10" d="M 353.183594 105.09375 C 353.183594 108.640625 347.863281 108.640625 347.863281 105.09375 C 347.863281 101.546875 353.183594 101.546875 353.183594 105.09375 "/>
<path fill-rule="nonzero" fill="rgb(12.54902%, 65.490196%, 23.529412%)" fill-opacity="0.85098" stroke-width="0.837509" stroke-linecap="round" stroke-linejoin="round" stroke="rgb(12.54902%, 65.490196%, 23.529412%)" stroke-opacity="0.85098" stroke-miterlimit="10" d="M 410.351562 58.941406 C 410.351562 62.488281 405.03125 62.488281 405.03125 58.941406 C 405.03125 55.398438 410.351562 55.398438 410.351562 58.941406 "/>
<path fill-rule="nonzero" fill="rgb(50.980392%, 61.176471%, 0%)" fill-opacity="0.85098" stroke-width="0.837509" stroke-linecap="round" stroke-linejoin="round" stroke="rgb(50.980392%, 61.176471%, 0%)" stroke-opacity="0.85098" stroke-miterlimit="10" d="M 333.535156 141.804688 C 333.535156 145.347656 328.214844 145.347656 328.214844 141.804688 C 328.214844 138.257812 333.535156 138.257812 333.535156 141.804688 "/>
<path fill-rule="nonzero" fill="rgb(12.54902%, 65.490196%, 23.529412%)" fill-opacity="0.85098" stroke-width="0.837509" stroke-linecap="round" stroke-linejoin="round" stroke="rgb(12.54902%, 65.490196%, 23.529412%)" stroke-opacity="0.85098" stroke-miterlimit="10" d="M 403.039062 86.109375 C 403.039062 89.65625 397.71875 89.65625 397.71875 86.109375 C 397.71875 82.5625 403.039062 82.5625 403.039062 86.109375 "/>
<path fill-rule="nonzero" fill="rgb(50.980392%, 61.176471%, 0%)" fill-opacity="0.85098" stroke-width="0.837509" stroke-linecap="round" stroke-linejoin="round" stroke="rgb(50.980392%, 61.176471%, 0%)" stroke-opacity="0.85098" stroke-miterlimit="10" d="M 500.226562 81.667969 C 500.226562 85.214844 494.910156 85.214844 494.910156 81.667969 C 494.910156 78.125 500.226562 78.125 500.226562 81.667969 "/>
<path fill-rule="nonzero" fill="rgb(12.54902%, 65.490196%, 23.529412%)" fill-opacity="0.85098" stroke-width="0.837509" stroke-linecap="round" stroke-linejoin="round" stroke="rgb(12.54902%, 65.490196%, 23.529412%)" stroke-opacity="0.85098" stroke-miterlimit="10" d="M 462.0625 119.945312 C 462.0625 123.488281 456.742188 123.488281 456.742188 119.945312 C 456.742188 116.398438 462.0625 116.398438 462.0625 119.945312 "/>
<path fill-rule="nonzero" fill="rgb(50.980392%, 61.176471%, 0%)" fill-opacity="0.85098" stroke-width="0.837509" stroke-linecap="round" stroke-linejoin="round" stroke="rgb(50.980392%, 61.176471%, 0%)" stroke-opacity="0.85098" stroke-miterlimit="10" d="M 502.792969 93.125 C 502.792969 96.667969 497.476562 96.667969 497.476562 93.125 C 497.476562 89.578125 502.792969 89.578125 502.792969 93.125 "/>
<path fill-rule="nonzero" fill="rgb(12.54902%, 65.490196%, 23.529412%)" fill-opacity="0.85098" stroke-width="0.837509" stroke-linecap="round" stroke-linejoin="round" stroke="rgb(12.54902%, 65.490196%, 23.529412%)" stroke-opacity="0.85098" stroke-miterlimit="10" d="M 478.855469 117.234375 C 478.855469 120.777344 473.539062 120.777344 473.539062 117.234375 C 473.539062 113.6875 478.855469 113.6875 478.855469 117.234375 "/>
<g clip-path="url(#clip-36)">
<path fill-rule="nonzero" fill="rgb(100%, 100%, 100%)" fill-opacity="1" d="M 291.792969 276.734375 L 510.058594 276.734375 L 510.058594 185.589844 L 291.792969 185.589844 Z M 291.792969 276.734375 "/>
</g>
<g clip-path="url(#clip-37)">
<path fill="none" stroke-width="1.066978" stroke-linecap="butt" stroke-linejoin="round" stroke="rgb(94.509804%, 95.294118%, 95.686275%)" stroke-opacity="1" stroke-dasharray="1.066978 3.200935" stroke-miterlimit="10" d="M 291.792969 265.429688 L 510.054688 265.429688 "/>
</g>
<g clip-path="url(#clip-38)">
<path fill="none" stroke-width="1.066978" stroke-linecap="butt" stroke-linejoin="round" stroke="rgb(94.509804%, 95.294118%, 95.686275%)" stroke-opacity="1" stroke-dasharray="1.066978 3.200935" stroke-miterlimit="10" d="M 291.792969 246.078125 L 510.054688 246.078125 "/>
</g>
<g clip-path="url(#clip-39)">
<path fill="none" stroke-width="1.066978" stroke-linecap="butt" stroke-linejoin="round" stroke="rgb(94.509804%, 95.294118%, 95.686275%)" stroke-opacity="1" stroke-dasharray="1.066978 3.200935" stroke-miterlimit="10" d="M 291.792969 226.722656 L 510.054688 226.722656 "/>
</g>
<g clip-path="url(#clip-40)">
<path fill="none" stroke-width="1.066978" stroke-linecap="butt" stroke-linejoin="round" stroke="rgb(94.509804%, 95.294118%, 95.686275%)" stroke-opacity="1" stroke-dasharray="1.066978 3.200935" stroke-miterlimit="10" d="M 291.792969 207.367188 L 510.054688 207.367188 "/>
</g>
<g clip-path="url(#clip-41)">
<path fill="none" stroke-width="1.066978" stroke-linecap="butt" stroke-linejoin="round" stroke="rgb(94.509804%, 95.294118%, 95.686275%)" stroke-opacity="1" stroke-dasharray="1.066978 3.200935" stroke-miterlimit="10" d="M 291.792969 188.011719 L 510.054688 188.011719 "/>
</g>
<g clip-path="url(#clip-42)">
<path fill="none" stroke-width="1.066978" stroke-linecap="butt" stroke-linejoin="round" stroke="rgb(94.509804%, 95.294118%, 95.686275%)" stroke-opacity="1" stroke-dasharray="1.066978 3.200935" stroke-miterlimit="10" d="M 336.054688 276.734375 L 336.054688 185.585938 "/>
</g>
<g clip-path="url(#clip-43)">
<path fill="none" stroke-width="1.066978" stroke-linecap="butt" stroke-linejoin="round" stroke="rgb(94.509804%, 95.294118%, 95.686275%)" stroke-opacity="1" stroke-dasharray="1.066978 3.200935" stroke-miterlimit="10" d="M 390.742188 276.734375 L 390.742188 185.585938 "/>
</g>
<g clip-path="url(#clip-44)">
<path fill="none" stroke-width="1.066978" stroke-linecap="butt" stroke-linejoin="round" stroke="rgb(94.509804%, 95.294118%, 95.686275%)" stroke-opacity="1" stroke-dasharray="1.066978 3.200935" stroke-miterlimit="10" d="M 445.433594 276.734375 L 445.433594 185.585938 "/>
</g>
<g clip-path="url(#clip-45)">
<path fill="none" stroke-width="1.066978" stroke-linecap="butt" stroke-linejoin="round" stroke="rgb(94.509804%, 95.294118%, 95.686275%)" stroke-opacity="1" stroke-dasharray="1.066978 3.200935" stroke-miterlimit="10" d="M 500.121094 276.734375 L 500.121094 185.585938 "/>
</g>
<g clip-path="url(#clip-46)">
<path fill="none" stroke-width="0.853583" stroke-linecap="butt" stroke-linejoin="round" stroke="rgb(67.843137%, 70.980392%, 74.117647%)" stroke-opacity="1" stroke-dasharray="3.414331 3.414331" stroke-miterlimit="10" d="M 291.792969 226.722656 L 510.054688 226.722656 "/>
</g>
<g clip-path="url(#clip-47)">
<path fill="none" stroke-width="0.853583" stroke-linecap="butt" stroke-linejoin="round" stroke="rgb(67.843137%, 70.980392%, 74.117647%)" stroke-opacity="1" stroke-dasharray="3.414331 3.414331" stroke-miterlimit="10" d="M 390.742188 276.734375 L 390.742188 185.585938 "/>
</g>
<path fill-rule="nonzero" fill="rgb(0%, 62.745098%, 83.921569%)" fill-opacity="0.85098" stroke-width="0.837509" stroke-linecap="round" stroke-linejoin="round" stroke="rgb(0%, 62.745098%, 83.921569%)" stroke-opacity="0.85098" stroke-miterlimit="10" d="M 334.25 201.136719 C 334.25 204.679688 328.933594 204.679688 328.933594 201.136719 C 328.933594 197.589844 334.25 197.589844 334.25 201.136719 "/>
<path fill-rule="nonzero" fill="rgb(48.235294%, 54.117647%, 90.196078%)" fill-opacity="0.85098" stroke-width="0.837509" stroke-linecap="round" stroke-linejoin="round" stroke="rgb(48.235294%, 54.117647%, 90.196078%)" stroke-opacity="0.85098" stroke-miterlimit="10" d="M 305.460938 210.59375 C 305.460938 214.140625 300.140625 214.140625 300.140625 210.59375 C 300.140625 207.046875 305.460938 207.046875 305.460938 210.59375 "/>
<path fill-rule="nonzero" fill="rgb(75.294118%, 44.313725%, 86.27451%)" fill-opacity="0.85098" stroke-width="0.837509" stroke-linecap="round" stroke-linejoin="round" stroke="rgb(75.294118%, 44.313725%, 86.27451%)" stroke-opacity="0.85098" stroke-miterlimit="10" d="M 332.707031 217.402344 C 332.707031 220.949219 327.390625 220.949219 327.390625 217.402344 C 327.390625 213.855469 332.707031 213.855469 332.707031 217.402344 "/>
<path fill-rule="nonzero" fill="rgb(87.058824%, 38.823529%, 72.54902%)" fill-opacity="0.85098" stroke-width="0.837509" stroke-linecap="round" stroke-linejoin="round" stroke="rgb(87.058824%, 38.823529%, 72.54902%)" stroke-opacity="0.85098" stroke-miterlimit="10" d="M 304.371094 241.308594 C 304.371094 244.855469 299.054688 244.855469 299.054688 241.308594 C 299.054688 237.761719 304.371094 237.761719 304.371094 241.308594 "/>
<path fill-rule="nonzero" fill="rgb(0%, 62.745098%, 83.921569%)" fill-opacity="0.85098" stroke-width="0.837509" stroke-linecap="round" stroke-linejoin="round" stroke="rgb(0%, 62.745098%, 83.921569%)" stroke-opacity="0.85098" stroke-miterlimit="10" d="M 353.183594 235.882812 C 353.183594 239.425781 347.863281 239.425781 347.863281 235.882812 C 347.863281 232.335938 353.183594 232.335938 353.183594 235.882812 "/>
<path fill-rule="nonzero" fill="rgb(48.235294%, 54.117647%, 90.196078%)" fill-opacity="0.85098" stroke-width="0.837509" stroke-linecap="round" stroke-linejoin="round" stroke="rgb(48.235294%, 54.117647%, 90.196078%)" stroke-opacity="0.85098" stroke-miterlimit="10" d="M 410.351562 189.730469 C 410.351562 193.277344 405.03125 193.277344 405.03125 189.730469 C 405.03125 186.183594 410.351562 186.183594 410.351562 189.730469 "/>
<path fill-rule="nonzero" fill="rgb(75.294118%, 44.313725%, 86.27451%)" fill-opacity="0.85098" stroke-width="0.837509" stroke-linecap="round" stroke-linejoin="round" stroke="rgb(75.294118%, 44.313725%, 86.27451%)" stroke-opacity="0.85098" stroke-miterlimit="10" d="M 333.535156 272.589844 C 333.535156 276.136719 328.214844 276.136719 328.214844 272.589844 C 328.214844 269.042969 333.535156 269.042969 333.535156 272.589844 "/>
<path fill-rule="nonzero" fill="rgb(87.058824%, 38.823529%, 72.54902%)" fill-opacity="0.85098" stroke-width="0.837509" stroke-linecap="round" stroke-linejoin="round" stroke="rgb(87.058824%, 38.823529%, 72.54902%)" stroke-opacity="0.85098" stroke-miterlimit="10" d="M 403.039062 216.894531 C 403.039062 220.441406 397.71875 220.441406 397.71875 216.894531 C 397.71875 213.351562 403.039062 213.351562 403.039062 216.894531 "/>
<path fill-rule="nonzero" fill="rgb(0%, 62.745098%, 83.921569%)" fill-opacity="0.85098" stroke-width="0.837509" stroke-linecap="round" stroke-linejoin="round" stroke="rgb(0%, 62.745098%, 83.921569%)" stroke-opacity="0.85098" stroke-miterlimit="10" d="M 500.226562 212.457031 C 500.226562 216.003906 494.910156 216.003906 494.910156 212.457031 C 494.910156 208.910156 500.226562 208.910156 500.226562 212.457031 "/>
<path fill-rule="nonzero" fill="rgb(48.235294%, 54.117647%, 90.196078%)" fill-opacity="0.85098" stroke-width="0.837509" stroke-linecap="round" stroke-linejoin="round" stroke="rgb(48.235294%, 54.117647%, 90.196078%)" stroke-opacity="0.85098" stroke-miterlimit="10" d="M 462.0625 250.730469 C 462.0625 254.277344 456.742188 254.277344 456.742188 250.730469 C 456.742188 247.1875 462.0625 247.1875 462.0625 250.730469 "/>
<path fill-rule="nonzero" fill="rgb(75.294118%, 44.313725%, 86.27451%)" fill-opacity="0.85098" stroke-width="0.837509" stroke-linecap="round" stroke-linejoin="round" stroke="rgb(75.294118%, 44.313725%, 86.27451%)" stroke-opacity="0.85098" stroke-miterlimit="10" d="M 502.792969 223.910156 C 502.792969 227.457031 497.476562 227.457031 497.476562 223.910156 C 497.476562 220.367188 502.792969 220.367188 502.792969 223.910156 "/>
<path fill-rule="nonzero" fill="rgb(87.058824%, 38.823529%, 72.54902%)" fill-opacity="0.85098" stroke-width="0.837509" stroke-linecap="round" stroke-linejoin="round" stroke="rgb(87.058824%, 38.823529%, 72.54902%)" stroke-opacity="0.85098" stroke-miterlimit="10" d="M 478.855469 248.019531 C 478.855469 251.566406 473.539062 251.566406 473.539062 248.019531 C 473.539062 244.472656 478.855469 244.472656 478.855469 248.019531 "/>
<g fill="rgb(11.372549%, 20.784314%, 34.117647%)" fill-opacity="1">
<use xlink:href="#glyph-0-0" x="141.378906" y="178.654297"/>
<use xlink:href="#glyph-0-1" x="144.378906" y="178.654297"/>
<use xlink:href="#glyph-0-2" x="151.378906" y="178.654297"/>
<use xlink:href="#glyph-0-3" x="154.378906" y="178.654297"/>
<use xlink:href="#glyph-0-4" x="161.378906" y="178.654297"/>
<use xlink:href="#glyph-0-5" x="168.378906" y="178.654297"/>
<use xlink:href="#glyph-0-6" x="172.378906" y="178.654297"/>
<use xlink:href="#glyph-0-7" x="175.378906" y="178.654297"/>
<use xlink:href="#glyph-0-1" x="182.378906" y="178.654297"/>
</g>
<g fill="rgb(11.372549%, 20.784314%, 34.117647%)" fill-opacity="1">
<use xlink:href="#glyph-0-8" x="379.425781" y="178.654297"/>
<use xlink:href="#glyph-0-9" x="387.425781" y="178.654297"/>
<use xlink:href="#glyph-0-10" x="394.425781" y="178.654297"/>
<use xlink:href="#glyph-0-2" x="401.425781" y="178.654297"/>
<use xlink:href="#glyph-0-3" x="404.425781" y="178.654297"/>
<use xlink:href="#glyph-0-4" x="411.425781" y="178.654297"/>
<use xlink:href="#glyph-0-5" x="418.425781" y="178.654297"/>
</g>
<g fill="rgb(11.372549%, 20.784314%, 34.117647%)" fill-opacity="1">
<use xlink:href="#glyph-0-11" x="138.378906" y="47.865234"/>
<use xlink:href="#glyph-0-7" x="147.378906" y="47.865234"/>
<use xlink:href="#glyph-0-1" x="154.378906" y="47.865234"/>
<use xlink:href="#glyph-0-12" x="161.378906" y="47.865234"/>
<use xlink:href="#glyph-0-6" x="168.378906" y="47.865234"/>
<use xlink:href="#glyph-0-5" x="171.378906" y="47.865234"/>
<use xlink:href="#glyph-0-6" x="175.378906" y="47.865234"/>
<use xlink:href="#glyph-0-7" x="178.378906" y="47.865234"/>
<use xlink:href="#glyph-0-1" x="185.378906" y="47.865234"/>
</g>
<g fill="rgb(11.372549%, 20.784314%, 34.117647%)" fill-opacity="1">
<use xlink:href="#glyph-0-13" x="373.925781" y="47.865234"/>
<use xlink:href="#glyph-0-6" x="382.925781" y="47.865234"/>
<use xlink:href="#glyph-0-14" x="385.925781" y="47.865234"/>
<use xlink:href="#glyph-0-3" x="392.925781" y="47.865234"/>
<use xlink:href="#glyph-0-15" x="399.925781" y="47.865234"/>
<use xlink:href="#glyph-0-5" x="406.925781" y="47.865234"/>
<use xlink:href="#glyph-0-6" x="410.925781" y="47.865234"/>
<use xlink:href="#glyph-0-7" x="413.925781" y="47.865234"/>
<use xlink:href="#glyph-0-1" x="420.925781" y="47.865234"/>
</g>
<path fill="none" stroke-width="1.066978" stroke-linecap="butt" stroke-linejoin="round" stroke="rgb(87.058824%, 88.627451%, 90.196078%)" stroke-opacity="1" stroke-miterlimit="10" d="M 56.246094 276.734375 L 274.511719 276.734375 "/>
<path fill="none" stroke-width="0.640187" stroke-linecap="butt" stroke-linejoin="round" stroke="rgb(87.058824%, 88.627451%, 90.196078%)" stroke-opacity="1" stroke-miterlimit="10" d="M 100.511719 279.972656 L 100.511719 276.734375 "/>
<path fill="none" stroke-width="0.640187" stroke-linecap="butt" stroke-linejoin="round" stroke="rgb(87.058824%, 88.627451%, 90.196078%)" stroke-opacity="1" stroke-miterlimit="10" d="M 155.199219 279.972656 L 155.199219 276.734375 "/>
<path fill="none" stroke-width="0.640187" stroke-linecap="butt" stroke-linejoin="round" stroke="rgb(87.058824%, 88.627451%, 90.196078%)" stroke-opacity="1" stroke-miterlimit="10" d="M 209.890625 279.972656 L 209.890625 276.734375 "/>
<path fill="none" stroke-width="0.640187" stroke-linecap="butt" stroke-linejoin="round" stroke="rgb(87.058824%, 88.627451%, 90.196078%)" stroke-opacity="1" stroke-miterlimit="10" d="M 264.578125 279.972656 L 264.578125 276.734375 "/>
<g fill="rgb(28.627451%, 31.372549%, 34.117647%)" fill-opacity="1">
<use xlink:href="#glyph-1-0" x="92.511719" y="293.819336"/>
<use xlink:href="#glyph-1-1" x="96.511719" y="293.819336"/>
<use xlink:href="#glyph-1-2" x="102.511719" y="293.819336"/>
</g>
<g fill="rgb(28.627451%, 31.372549%, 34.117647%)" fill-opacity="1">
<use xlink:href="#glyph-1-2" x="152.199219" y="293.819336"/>
</g>
<g fill="rgb(28.627451%, 31.372549%, 34.117647%)" fill-opacity="1">
<use xlink:href="#glyph-1-1" x="203.890625" y="293.819336"/>
<use xlink:href="#glyph-1-2" x="209.890625" y="293.819336"/>
</g>
<g fill="rgb(28.627451%, 31.372549%, 34.117647%)" fill-opacity="1">
<use xlink:href="#glyph-1-3" x="258.578125" y="293.819336"/>
<use xlink:href="#glyph-1-2" x="264.578125" y="293.819336"/>
</g>
<path fill="none" stroke-width="1.066978" stroke-linecap="butt" stroke-linejoin="round" stroke="rgb(87.058824%, 88.627451%, 90.196078%)" stroke-opacity="1" stroke-miterlimit="10" d="M 291.792969 276.734375 L 510.054688 276.734375 "/>
<path fill="none" stroke-width="0.640187" stroke-linecap="butt" stroke-linejoin="round" stroke="rgb(87.058824%, 88.627451%, 90.196078%)" stroke-opacity="1" stroke-miterlimit="10" d="M 336.054688 279.972656 L 336.054688 276.734375 "/>
<path fill="none" stroke-width="0.640187" stroke-linecap="butt" stroke-linejoin="round" stroke="rgb(87.058824%, 88.627451%, 90.196078%)" stroke-opacity="1" stroke-miterlimit="10" d="M 390.742188 279.972656 L 390.742188 276.734375 "/>
<path fill="none" stroke-width="0.640187" stroke-linecap="butt" stroke-linejoin="round" stroke="rgb(87.058824%, 88.627451%, 90.196078%)" stroke-opacity="1" stroke-miterlimit="10" d="M 445.433594 279.972656 L 445.433594 276.734375 "/>
<path fill="none" stroke-width="0.640187" stroke-linecap="butt" stroke-linejoin="round" stroke="rgb(87.058824%, 88.627451%, 90.196078%)" stroke-opacity="1" stroke-miterlimit="10" d="M 500.121094 279.972656 L 500.121094 276.734375 "/>
<g fill="rgb(28.627451%, 31.372549%, 34.117647%)" fill-opacity="1">
<use xlink:href="#glyph-1-0" x="328.054688" y="293.819336"/>
<use xlink:href="#glyph-1-1" x="332.054688" y="293.819336"/>
<use xlink:href="#glyph-1-2" x="338.054688" y="293.819336"/>
</g>
<g fill="rgb(28.627451%, 31.372549%, 34.117647%)" fill-opacity="1">
<use xlink:href="#glyph-1-2" x="387.742188" y="293.819336"/>
</g>
<g fill="rgb(28.627451%, 31.372549%, 34.117647%)" fill-opacity="1">
<use xlink:href="#glyph-1-1" x="439.433594" y="293.819336"/>
<use xlink:href="#glyph-1-2" x="445.433594" y="293.819336"/>
</g>
<g fill="rgb(28.627451%, 31.372549%, 34.117647%)" fill-opacity="1">
<use xlink:href="#glyph-1-3" x="494.121094" y="293.819336"/>
<use xlink:href="#glyph-1-2" x="500.121094" y="293.819336"/>
</g>
<path fill="none" stroke-width="1.066978" stroke-linecap="butt" stroke-linejoin="round" stroke="rgb(87.058824%, 88.627451%, 90.196078%)" stroke-opacity="1" stroke-miterlimit="10" d="M 56.246094 145.945312 L 56.246094 54.800781 "/>
<g fill="rgb(28.627451%, 31.372549%, 34.117647%)" fill-opacity="1">
<use xlink:href="#glyph-1-0" x="31.183594" y="138.163086"/>
<use xlink:href="#glyph-1-1" x="35.183594" y="138.163086"/>
<use xlink:href="#glyph-1-2" x="41.183594" y="138.163086"/>
</g>
<g fill="rgb(28.627451%, 31.372549%, 34.117647%)" fill-opacity="1">
<use xlink:href="#glyph-1-0" x="31.183594" y="118.807617"/>
<use xlink:href="#glyph-1-4" x="35.183594" y="118.807617"/>
<use xlink:href="#glyph-1-2" x="41.183594" y="118.807617"/>
</g>
<g fill="rgb(28.627451%, 31.372549%, 34.117647%)" fill-opacity="1">
<use xlink:href="#glyph-1-2" x="41.183594" y="99.452148"/>
</g>
<g fill="rgb(28.627451%, 31.372549%, 34.117647%)" fill-opacity="1">
<use xlink:href="#glyph-1-4" x="35.183594" y="80.09668"/>
<use xlink:href="#glyph-1-2" x="41.183594" y="80.09668"/>
</g>
<g fill="rgb(28.627451%, 31.372549%, 34.117647%)" fill-opacity="1">
<use xlink:href="#glyph-1-1" x="35.183594" y="60.741211"/>
<use xlink:href="#glyph-1-2" x="41.183594" y="60.741211"/>
</g>
<path fill="none" stroke-width="0.640187" stroke-linecap="butt" stroke-linejoin="round" stroke="rgb(87.058824%, 88.627451%, 90.196078%)" stroke-opacity="1" stroke-miterlimit="10" d="M 53.011719 134.644531 L 56.246094 134.644531 "/>
<path fill="none" stroke-width="0.640187" stroke-linecap="butt" stroke-linejoin="round" stroke="rgb(87.058824%, 88.627451%, 90.196078%)" stroke-opacity="1" stroke-miterlimit="10" d="M 53.011719 115.289062 L 56.246094 115.289062 "/>
<path fill="none" stroke-width="0.640187" stroke-linecap="butt" stroke-linejoin="round" stroke="rgb(87.058824%, 88.627451%, 90.196078%)" stroke-opacity="1" stroke-miterlimit="10" d="M 53.011719 95.933594 L 56.246094 95.933594 "/>
<path fill="none" stroke-width="0.640187" stroke-linecap="butt" stroke-linejoin="round" stroke="rgb(87.058824%, 88.627451%, 90.196078%)" stroke-opacity="1" stroke-miterlimit="10" d="M 53.011719 76.578125 L 56.246094 76.578125 "/>
<path fill="none" stroke-width="0.640187" stroke-linecap="butt" stroke-linejoin="round" stroke="rgb(87.058824%, 88.627451%, 90.196078%)" stroke-opacity="1" stroke-miterlimit="10" d="M 53.011719 57.222656 L 56.246094 57.222656 "/>
<path fill="none" stroke-width="1.066978" stroke-linecap="butt" stroke-linejoin="round" stroke="rgb(87.058824%, 88.627451%, 90.196078%)" stroke-opacity="1" stroke-miterlimit="10" d="M 56.246094 276.734375 L 56.246094 185.585938 "/>
<g fill="rgb(28.627451%, 31.372549%, 34.117647%)" fill-opacity="1">
<use xlink:href="#glyph-1-0" x="31.183594" y="268.948242"/>
<use xlink:href="#glyph-1-1" x="35.183594" y="268.948242"/>
<use xlink:href="#glyph-1-2" x="41.183594" y="268.948242"/>
</g>
<g fill="rgb(28.627451%, 31.372549%, 34.117647%)" fill-opacity="1">
<use xlink:href="#glyph-1-0" x="31.183594" y="249.59668"/>
<use xlink:href="#glyph-1-4" x="35.183594" y="249.59668"/>
<use xlink:href="#glyph-1-2" x="41.183594" y="249.59668"/>
</g>
<g fill="rgb(28.627451%, 31.372549%, 34.117647%)" fill-opacity="1">
<use xlink:href="#glyph-1-2" x="41.183594" y="230.241211"/>
</g>
<g fill="rgb(28.627451%, 31.372549%, 34.117647%)" fill-opacity="1">
<use xlink:href="#glyph-1-4" x="35.183594" y="210.885742"/>
<use xlink:href="#glyph-1-2" x="41.183594" y="210.885742"/>
</g>
<g fill="rgb(28.627451%, 31.372549%, 34.117647%)" fill-opacity="1">
<use xlink:href="#glyph-1-1" x="35.183594" y="191.530273"/>
<use xlink:href="#glyph-1-2" x="41.183594" y="191.530273"/>
</g>
<path fill="none" stroke-width="0.640187" stroke-linecap="butt" stroke-linejoin="round" stroke="rgb(87.058824%, 88.627451%, 90.196078%)" stroke-opacity="1" stroke-miterlimit="10" d="M 53.011719 265.429688 L 56.246094 265.429688 "/>
<path fill="none" stroke-width="0.640187" stroke-linecap="butt" stroke-linejoin="round" stroke="rgb(87.058824%, 88.627451%, 90.196078%)" stroke-opacity="1" stroke-miterlimit="10" d="M 53.011719 246.078125 L 56.246094 246.078125 "/>
<path fill="none" stroke-width="0.640187" stroke-linecap="butt" stroke-linejoin="round" stroke="rgb(87.058824%, 88.627451%, 90.196078%)" stroke-opacity="1" stroke-miterlimit="10" d="M 53.011719 226.722656 L 56.246094 226.722656 "/>
<path fill="none" stroke-width="0.640187" stroke-linecap="butt" stroke-linejoin="round" stroke="rgb(87.058824%, 88.627451%, 90.196078%)" stroke-opacity="1" stroke-miterlimit="10" d="M 53.011719 207.367188 L 56.246094 207.367188 "/>
<path fill="none" stroke-width="0.640187" stroke-linecap="butt" stroke-linejoin="round" stroke="rgb(87.058824%, 88.627451%, 90.196078%)" stroke-opacity="1" stroke-miterlimit="10" d="M 53.011719 188.011719 L 56.246094 188.011719 "/>
<g fill="rgb(12.941176%, 14.509804%, 16.078431%)" fill-opacity="1">
<use xlink:href="#glyph-2-0" x="246.152344" y="310.515625"/>
<use xlink:href="#glyph-2-1" x="255.152344" y="310.515625"/>
<use xlink:href="#glyph-2-2" x="264.152344" y="310.515625"/>
<use xlink:href="#glyph-2-3" x="271.152344" y="310.515625"/>
<use xlink:href="#glyph-2-4" x="275.152344" y="310.515625"/>
<use xlink:href="#glyph-2-5" x="279.152344" y="310.515625"/>
<use xlink:href="#glyph-2-6" x="286.152344" y="310.515625"/>
<use xlink:href="#glyph-2-7" x="293.152344" y="310.515625"/>
<use xlink:href="#glyph-2-8" x="297.152344" y="310.515625"/>
<use xlink:href="#glyph-2-9" x="304.152344" y="310.515625"/>
<use xlink:href="#glyph-2-10" x="316.152344" y="310.515625"/>
</g>
<g fill="rgb(12.941176%, 14.509804%, 16.078431%)" fill-opacity="1">
<use xlink:href="#glyph-3-0" x="24.421875" y="202.765625"/>
<use xlink:href="#glyph-3-1" x="24.421875" y="193.765625"/>
<use xlink:href="#glyph-3-2" x="24.421875" y="184.765625"/>
<use xlink:href="#glyph-3-3" x="24.421875" y="177.765625"/>
<use xlink:href="#glyph-3-4" x="24.421875" y="173.765625"/>
<use xlink:href="#glyph-3-5" x="24.421875" y="169.765625"/>
<use xlink:href="#glyph-3-6" x="24.421875" y="162.765625"/>
<use xlink:href="#glyph-3-7" x="24.421875" y="155.765625"/>
<use xlink:href="#glyph-3-8" x="24.421875" y="151.765625"/>
<use xlink:href="#glyph-3-9" x="24.421875" y="144.765625"/>
<use xlink:href="#glyph-3-10" x="24.421875" y="132.765625"/>
</g>
<g fill="rgb(11.372549%, 20.784314%, 34.117647%)" fill-opacity="1">
<use xlink:href="#glyph-4-0" x="178.652344" y="21.625"/>
<use xlink:href="#glyph-4-1" x="189.652344" y="21.625"/>
<use xlink:href="#glyph-4-2" x="200.652344" y="21.625"/>
<use xlink:href="#glyph-4-3" x="212.652344" y="21.625"/>
<use xlink:href="#glyph-4-4" x="216.652344" y="21.625"/>
<use xlink:href="#glyph-4-3" x="221.652344" y="21.625"/>
<use xlink:href="#glyph-4-5" x="225.652344" y="21.625"/>
<use xlink:href="#glyph-4-6" x="237.652344" y="21.625"/>
<use xlink:href="#glyph-4-7" x="248.652344" y="21.625"/>
<use xlink:href="#glyph-4-8" x="260.652344" y="21.625"/>
<use xlink:href="#glyph-4-3" x="270.652344" y="21.625"/>
<use xlink:href="#glyph-4-9" x="274.652344" y="21.625"/>
<use xlink:href="#glyph-4-10" x="279.652344" y="21.625"/>
<use xlink:href="#glyph-4-11" x="288.652344" y="21.625"/>
<use xlink:href="#glyph-4-11" x="297.652344" y="21.625"/>
<use xlink:href="#glyph-4-11" x="306.652344" y="21.625"/>
<use xlink:href="#glyph-4-3" x="315.652344" y="21.625"/>
<use xlink:href="#glyph-4-12" x="319.652344" y="21.625"/>
<use xlink:href="#glyph-4-13" x="329.652344" y="21.625"/>
<use xlink:href="#glyph-4-14" x="335.652344" y="21.625"/>
<use xlink:href="#glyph-4-15" x="345.652344" y="21.625"/>
<use xlink:href="#glyph-4-16" x="350.652344" y="21.625"/>
<use xlink:href="#glyph-4-17" x="359.652344" y="21.625"/>
<use xlink:href="#glyph-4-18" x="363.652344" y="21.625"/>
<use xlink:href="#glyph-4-19" x="373.652344" y="21.625"/>
<use xlink:href="#glyph-4-20" x="382.652344" y="21.625"/>
</g>
</svg>
