<?xml version="1.0" encoding="utf-8"?>
<svg width="1500" height="770" viewBox="0 0 1500 770" role="img" aria-labelledby="title description" xmlns="http://www.w3.org/2000/svg">
  <title id="title">TMT spike-in benchmarking across fold-change thresholds</title>
  <desc id="description">Table comparing true positives, false positives, sensitivity, specificity and Matthews correlation coefficient for uncorrected, corrected and condition-protected analyses at log2 fold-change thresholds from zero to one. Sensitivity, specificity and MCC cells use a red-to-green scale from zero to one.</desc>
  <defs>
    <filter id="shadow" x="-8%" y="-8%" width="116%" height="125%">
      <feDropShadow dx="0" dy="3" stdDeviation="4" flood-color="#263746" flood-opacity="0.13"/>
    </filter>
    <linearGradient id="metric-scale" x1="0%" y1="0%" x2="100%" y2="0%">
      <stop offset="0" stop-color="#d73027"/>
      <stop offset="0.5" stop-color="#fee08b"/>
      <stop offset="1" stop-color="#1a9850"/>
    </linearGradient>
    <style>
      .title { font: 700 34px Arial, Helvetica, sans-serif; fill: #1d3557; }
      .subtitle { font: 400 18px Arial, Helvetica, sans-serif; fill: #536271; }
      .header { font: 700 18px Arial, Helvetica, sans-serif; fill: #ffffff; }
      .threshold { font: 400 20px Arial, Helvetica, sans-serif; fill: #1d3557; }
      .threshold-highlight { font: 700 20px Arial, Helvetica, sans-serif; fill: #1d3557; }
      .analysis { font: 600 18px Arial, Helvetica, sans-serif; fill: #293947; }
      .value { font: 400 18px Menlo, Consolas, monospace; fill: #263746; }
      .value-light { font: 400 18px Menlo, Consolas, monospace; fill: #ffffff; }
      .value-highlight { font: 700 18px Menlo, Consolas, monospace; fill: #172c43; }
      .value-highlight-light { font: 700 18px Menlo, Consolas, monospace; fill: #ffffff; }
      .legend { font: 400 17px Arial, Helvetica, sans-serif; fill: #4b5a66; }
      .note { font: 400 16px Arial, Helvetica, sans-serif; fill: #5d6973; }
    </style>
  </defs>
  <rect width="1500" height="770" fill="#ffffff"/>
  <text x="750" y="45" text-anchor="middle" class="title" style="white-space: pre;">D–A spike-in benchmarking across fold-change thresholds</text>
  <text x="750" y="73" text-anchor="middle" class="subtitle" style="white-space: pre;">Higher sensitivity, specificity and MCC values are preferred</text>
  <text x="535" y="101" text-anchor="end" class="legend" style="white-space: pre;">Metric scale</text>
  <rect x="550" y="84" width="400" height="20" rx="6" fill="url(#metric-scale)" stroke="#9ba7af"/>
  <text class="value-light" style="fill: rgb(0, 0, 0); font-size: 16px; white-space: pre;" x="562" y="100">0</text>
  <text class="value" style="font-size: 16px; text-anchor: middle; white-space: pre;" x="750" y="100">0.5</text>
  <text class="value-light" style="fill: rgb(0, 0, 0); font-size: 16px; text-anchor: end; white-space: pre;" x="938" y="100">1</text>
  <g transform="translate(0 16)">
    <g filter="url(#shadow)">
      <rect x="70" y="108" width="1360" height="562" rx="12" fill="#ffffff" stroke="#9aabba" stroke-width="1.5"/>
    </g>
    <path d="M82 108 H1418 Q1430 108 1430 120 V160 H70 V120 Q70 108 82 108 Z" fill="#315f7d"/>
    <text x="170" y="141" text-anchor="middle" class="header" style="white-space: pre;">log2FC threshold</text>
    <text x="355" y="141" text-anchor="middle" class="header" style="white-space: pre;">Analysis</text>
    <text x="490" y="141" text-anchor="middle" class="header" style="white-space: pre;">TP</text>
    <text x="590" y="141" text-anchor="middle" class="header" style="white-space: pre;">FP</text>
    <text x="765" y="141" text-anchor="middle" class="header" style="white-space: pre;">Sensitivity</text>
    <text x="1015" y="141" text-anchor="middle" class="header" style="white-space: pre;">Specificity</text>
    <text x="1285" y="141" text-anchor="middle" class="header" style="white-space: pre;">MCC</text>
    <rect x="70" y="160" width="1360" height="102" fill="#f7fafc"/>
    <rect x="70" y="262" width="1360" height="102" fill="#ffffff"/>
    <rect x="70" y="364" width="1360" height="102" fill="#f7fafc"/>
    <rect x="70" y="466" width="1360" height="102" fill="#ffffff"/>
    <path d="M70 568 H1430 V658 Q1430 670 1418 670 H82 Q70 670 70 658 Z" fill="#f7fafc"/>
    <text x="170" y="217" text-anchor="middle" class="threshold" style="white-space: pre;">0.0</text>
    <text x="170" y="319" text-anchor="middle" class="threshold" style="white-space: pre;">0.2</text>
    <text x="170" y="421" text-anchor="middle" class="threshold-highlight" style="white-space: pre;">0.3</text>
    <text x="170" y="523" text-anchor="middle" class="threshold" style="white-space: pre;">0.5</text>
    <text x="170" y="625" text-anchor="middle" class="threshold" style="white-space: pre;">1.0</text>
    <g class="analysis">
      <text x="355" y="183" text-anchor="middle" style="white-space: pre;">Uncorrected</text>
      <text x="355" y="217" text-anchor="middle" style="white-space: pre;">Corrected</text>
      <text x="355" y="251" text-anchor="middle" style="white-space: pre;">Protected</text>
      <text x="355" y="285" text-anchor="middle" style="white-space: pre;">Uncorrected</text>
      <text x="355" y="319" text-anchor="middle" style="white-space: pre;">Corrected</text>
      <text x="355" y="353" text-anchor="middle" style="white-space: pre;">Protected</text>
      <text x="355" y="387" text-anchor="middle" style="white-space: pre;">Uncorrected</text>
      <text x="355" y="421" text-anchor="middle" style="white-space: pre;">Corrected</text>
      <text x="355" y="455" text-anchor="middle" style="white-space: pre;">Protected</text>
      <text x="355" y="489" text-anchor="middle" style="white-space: pre;">Uncorrected</text>
      <text x="355" y="523" text-anchor="middle" style="white-space: pre;">Corrected</text>
      <text x="355" y="557" text-anchor="middle" style="white-space: pre;">Protected</text>
      <text x="355" y="591" text-anchor="middle" style="white-space: pre;">Uncorrected</text>
      <text x="355" y="625" text-anchor="middle" style="white-space: pre;">Corrected</text>
      <text x="355" y="659" text-anchor="middle" style="white-space: pre;">Protected</text>
    </g>
    <g class="value">
      <text x="490" y="183" text-anchor="middle" style="white-space: pre;">387</text>
      <text x="590" y="183" text-anchor="middle" style="white-space: pre;">159</text>
      <text x="490" y="217" text-anchor="middle" style="white-space: pre;">461</text>
      <text x="590" y="217" text-anchor="middle" style="white-space: pre;">892</text>
      <text x="490" y="251" text-anchor="middle" style="white-space: pre;">463</text>
      <text x="590" y="251" text-anchor="middle" style="white-space: pre;">915</text>
      <text x="490" y="285" text-anchor="middle" style="white-space: pre;">387</text>
      <text x="590" y="285" text-anchor="middle" style="white-space: pre;">16</text>
      <text x="490" y="319" text-anchor="middle" style="white-space: pre;">459</text>
      <text x="590" y="319" text-anchor="middle" style="white-space: pre;">74</text>
      <text x="490" y="353" text-anchor="middle" style="white-space: pre;">461</text>
      <text x="590" y="353" text-anchor="middle" style="white-space: pre;">85</text>
      <text x="490" y="387" text-anchor="middle" class="value-highlight" style="white-space: pre;">385</text>
      <text x="590" y="387" text-anchor="middle" class="value-highlight" style="white-space: pre;">10</text>
      <text x="490" y="421" text-anchor="middle" class="value-highlight" style="white-space: pre;">450</text>
      <text x="590" y="421" text-anchor="middle" class="value-highlight" style="white-space: pre;">33</text>
      <text x="490" y="455" text-anchor="middle" class="value-highlight" style="white-space: pre;">453</text>
      <text x="590" y="455" text-anchor="middle" class="value-highlight" style="white-space: pre;">39</text>
      <text x="490" y="489" text-anchor="middle" style="white-space: pre;">376</text>
      <text x="590" y="489" text-anchor="middle" style="white-space: pre;">3</text>
      <text x="490" y="523" text-anchor="middle" style="white-space: pre;">418</text>
      <text x="590" y="523" text-anchor="middle" style="white-space: pre;">9</text>
      <text x="490" y="557" text-anchor="middle" style="white-space: pre;">425</text>
      <text x="590" y="557" text-anchor="middle" style="white-space: pre;">13</text>
      <text x="490" y="591" text-anchor="middle" style="white-space: pre;">221</text>
      <text x="590" y="591" text-anchor="middle" style="white-space: pre;">0</text>
      <text x="490" y="625" text-anchor="middle" style="white-space: pre;">222</text>
      <text x="590" y="625" text-anchor="middle" style="white-space: pre;">0</text>
      <text x="490" y="659" text-anchor="middle" style="white-space: pre;">230</text>
      <text x="590" y="659" text-anchor="middle" style="white-space: pre;">1</text>
    </g>
    <g>
      <rect x="650" y="164" width="230" height="28" rx="5" fill="#70B366"/>
      <rect x="650" y="198" width="230" height="28" rx="5" fill="#299C53"/>
      <rect x="650" y="232" width="230" height="28" rx="5" fill="#279C53"/>
      <rect x="650" y="266" width="230" height="28" rx="5" fill="#70B366"/>
      <rect x="650" y="300" width="230" height="28" rx="5" fill="#2B9D54"/>
      <rect x="650" y="334" width="230" height="28" rx="5" fill="#299C53"/>
      <rect x="650" y="368" width="230" height="28" rx="5" fill="#71B366"/>
      <rect x="650" y="402" width="230" height="28" rx="5" fill="#33A056"/>
      <rect x="650" y="436" width="230" height="28" rx="5" fill="#309F55"/>
      <rect x="650" y="470" width="230" height="28" rx="5" fill="#7AB668"/>
      <rect x="650" y="504" width="230" height="28" rx="5" fill="#52A95E"/>
      <rect x="650" y="538" width="230" height="28" rx="5" fill="#4BA75C"/>
      <rect x="650" y="572" width="230" height="28" rx="5" fill="#FBD383"/>
      <rect x="650" y="606" width="230" height="28" rx="5" fill="#FBD384"/>
      <rect x="650" y="640" width="230" height="28" rx="5" fill="#FCD987"/>
    </g>
    <g class="value">
      <text x="765" y="183" text-anchor="middle" style="white-space: pre;">0.8113</text>
      <text x="765" y="217" text-anchor="middle" style="white-space: pre;">0.9665</text>
      <text x="765" y="251" text-anchor="middle" style="white-space: pre;">0.9706</text>
      <text x="765" y="285" text-anchor="middle" style="white-space: pre;">0.8113</text>
      <text x="765" y="319" text-anchor="middle" style="white-space: pre;">0.9623</text>
      <text x="765" y="353" text-anchor="middle" style="white-space: pre;">0.9665</text>
      <text class="value-highlight" style="fill: rgb(255, 255, 255); text-anchor: middle; white-space: pre;" x="765" y="387">0.8071</text>
      <text class="value-highlight" style="fill: rgb(255, 255, 255); text-anchor: middle; white-space: pre;" x="765" y="421">0.9434</text>
      <text class="value-highlight" style="fill: rgb(255, 255, 255); text-anchor: middle; white-space: pre;" x="765" y="455">0.9497</text>
      <text x="765" y="489" text-anchor="middle" style="white-space: pre;">0.7883</text>
      <text x="765" y="523" text-anchor="middle" style="white-space: pre;">0.8763</text>
      <text x="765" y="557" text-anchor="middle" style="white-space: pre;">0.8910</text>
      <text x="765" y="591" text-anchor="middle" style="white-space: pre;">0.4633</text>
      <text x="765" y="625" text-anchor="middle" style="white-space: pre;">0.4654</text>
      <text x="765" y="659" text-anchor="middle" style="white-space: pre;">0.4822</text>
    </g>
    <g>
      <rect x="900" y="164" width="230" height="28" rx="5" fill="#4CA75C"/>
      <rect x="900" y="198" width="230" height="28" rx="5" fill="#F4B673"/>
      <rect x="900" y="232" width="230" height="28" rx="5" fill="#F3B070"/>
      <rect x="900" y="266" width="230" height="28" rx="5" fill="#1F9951"/>
      <rect x="900" y="300" width="230" height="28" rx="5" fill="#319F56"/>
      <rect x="900" y="334" width="230" height="28" rx="5" fill="#34A056"/>
      <rect x="900" y="368" width="230" height="28" rx="5" fill="#1D9850"/>
      <rect x="900" y="402" width="230" height="28" rx="5" fill="#249B52"/>
      <rect x="900" y="436" width="230" height="28" rx="5" fill="#269B53"/>
      <rect x="900" y="470" width="230" height="28" rx="5" fill="#1A9850"/>
      <rect x="900" y="504" width="230" height="28" rx="5" fill="#1C9850"/>
      <rect x="900" y="538" width="230" height="28" rx="5" fill="#1E9951"/>
      <rect x="900" y="572" width="230" height="28" rx="5" fill="#1A9850"/>
      <rect x="900" y="606" width="230" height="28" rx="5" fill="#1A9850"/>
      <rect x="900" y="640" width="230" height="28" rx="5" fill="#1A9850"/>
    </g>
    <g class="value-light">
      <text style="fill: rgb(9, 9, 9); text-anchor: middle; white-space: pre;" x="1015" y="183">0.8899</text>
      <text style="fill: rgb(9, 9, 9); text-anchor: middle; white-space: pre;" x="1015" y="285">0.9889</text>
      <text style="fill: rgb(9, 9, 9); text-anchor: middle; white-space: pre;" x="1015" y="319">0.9488</text>
      <text style="fill: rgb(9, 9, 9); text-anchor: middle; white-space: pre;" x="1015" y="353">0.9411</text>
      <text class="value-highlight-light" style="text-anchor: middle; white-space: pre;" x="1015" y="387">0.9931</text>
      <text class="value-highlight-light" style="text-anchor: middle; white-space: pre;" x="1015" y="421">0.9771</text>
      <text class="value-highlight-light" style="text-anchor: middle; white-space: pre;" x="1015" y="455">0.9730</text>
      <text style="fill: rgb(9, 9, 9); text-anchor: middle; white-space: pre;" x="1015" y="489">0.9979</text>
      <text style="fill: rgb(9, 9, 9); text-anchor: middle; white-space: pre;" x="1015" y="523">0.9938</text>
      <text style="fill: rgb(9, 9, 9); text-anchor: middle; white-space: pre;" x="1015" y="557">0.9910</text>
      <text style="fill: rgb(9, 9, 9); text-anchor: middle; white-space: pre;" x="1015" y="591">1.0000</text>
      <text style="fill: rgb(9, 9, 9); text-anchor: middle; white-space: pre;" x="1015" y="625">1.0000</text>
      <text style="fill: rgb(9, 9, 9); text-anchor: middle; white-space: pre;" x="1015" y="659">0.9993</text>
    </g>
    <g class="value">
      <text x="1015" y="217" text-anchor="middle" style="white-space: pre;">0.3823</text>
      <text x="1015" y="251" text-anchor="middle" style="white-space: pre;">0.3663</text>
    </g>
    <g>
      <rect x="1150" y="164" width="270" height="28" rx="5" fill="#AFC776"/>
      <rect x="1150" y="198" width="270" height="28" rx="5" fill="#F0A469"/>
      <rect x="1150" y="232" width="270" height="28" rx="5" fill="#F0A167"/>
      <rect x="1150" y="266" width="270" height="28" rx="5" fill="#5EAD61"/>
      <rect x="1150" y="300" width="270" height="28" rx="5" fill="#51A95E"/>
      <rect x="1150" y="334" width="270" height="28" rx="5" fill="#55AA5F"/>
      <rect x="1150" y="368" width="270" height="28" rx="5" fill="#5BAC61"/>
      <rect x="1150" y="402" width="270" height="28" rx="5" fill="#3FA359"/>
      <rect x="1150" y="436" width="270" height="28" rx="5" fill="#41A45A"/>
      <rect x="1150" y="470" width="270" height="28" rx="5" fill="#5CAD61"/>
      <rect x="1150" y="504" width="270" height="28" rx="5" fill="#45A55B"/>
      <rect x="1150" y="538" width="270" height="28" rx="5" fill="#43A55A"/>
      <rect x="1150" y="572" width="270" height="28" rx="5" fill="#C3CD7B"/>
      <rect x="1150" y="606" width="270" height="28" rx="5" fill="#C3CD7B"/>
      <rect x="1150" y="640" width="270" height="28" rx="5" fill="#BECB7A"/>
    </g>
    <g class="value">
      <text x="1285" y="183" text-anchor="middle" style="white-space: pre;">0.6717</text>
      <text x="1285" y="217" text-anchor="middle" style="white-space: pre;">0.3301</text>
      <text x="1285" y="251" text-anchor="middle" style="white-space: pre;">0.3233</text>
      <text x="1285" y="285" text-anchor="middle" style="white-space: pre;">0.8491</text>
      <text x="1285" y="319" text-anchor="middle" style="white-space: pre;">0.8790</text>
      <text x="1285" y="353" text-anchor="middle" style="white-space: pre;">0.8693</text>
      <text class="value-highlight" style="fill: rgb(255, 255, 255); text-anchor: middle; white-space: pre;" x="1285" y="387">0.8554</text>
      <text class="value-highlight" style="fill: rgb(255, 255, 255); text-anchor: middle; white-space: pre;" x="1285" y="421">0.9167</text>
      <text class="value-highlight" style="fill: rgb(255, 255, 255); text-anchor: middle; white-space: pre;" x="1285" y="455">0.9133</text>
      <text x="1285" y="489" text-anchor="middle" style="white-space: pre;">0.8535</text>
      <text x="1285" y="523" text-anchor="middle" style="white-space: pre;">0.9041</text>
      <text x="1285" y="557" text-anchor="middle" style="white-space: pre;">0.9082</text>
      <text x="1285" y="591" text-anchor="middle" style="white-space: pre;">0.6273</text>
      <text x="1285" y="625" text-anchor="middle" style="white-space: pre;">0.6289</text>
      <text x="1285" y="659" text-anchor="middle" style="white-space: pre;">0.6396</text>
    </g>
    <g stroke="#c3ced6" stroke-width="1">
      <line x1="270" y1="108" x2="270" y2="670"/>
      <line x1="440" y1="108" x2="440" y2="670"/>
      <line x1="540" y1="108" x2="540" y2="670"/>
      <line x1="640" y1="108" x2="640" y2="670"/>
      <line x1="890" y1="108" x2="890" y2="670"/>
      <line x1="1140" y1="108" x2="1140" y2="670"/>
      <line x1="70" y1="262" x2="1430" y2="262"/>
      <line x1="70" y1="364" x2="1430" y2="364"/>
      <line x1="70" y1="466" x2="1430" y2="466"/>
      <line x1="70" y1="568" x2="1430" y2="568"/>
    </g>
    <rect x="71.5" y="365.5" width="1357" height="99" rx="5" fill="none" stroke="#173f5f" stroke-width="3"/>
  </g>
  <text class="note" style="white-space: pre;"><tspan x="75" y="720" style="font-weight: 700;">TP</tspan><tspan>: expected </tspan><tspan style="font-style: italic;">E. coli</tspan><tspan> and yeast changes recovered</tspan></text>
  <text class="note" style="white-space: pre;"><tspan x="75" y="748" style="font-weight: 700;">FP</tspan><tspan>: unchanged human proteins called differential</tspan></text>
  <text class="note" style="text-anchor: end; white-space: pre;"><tspan x="1425" y="720" style="font-weight: 700;">MCC</tspan><tspan>: Matthews correlation coefficient</tspan></text>
  <text class="note" style="text-anchor: end; white-space: pre;"><tspan x="1425" y="748" style="font-weight: 700;">Corrected</tspan><tspan>: Mix removed without protection · </tspan><tspan style="font-weight: 700;">Protected</tspan><tspan>: Mix removed while protecting Condition</tspan></text>
</svg>